<?xml version="1.0" standalone="no"?>
<!DOCTYPE svg PUBLIC "-//W3C//DTD SVG 20010904//EN"
 "http://www.w3.org/TR/2001/REC-SVG-20010904/DTD/svg10.dtd">
<svg version="1.0" xmlns="http://www.w3.org/2000/svg"
 width="526.000000pt" height="526.000000pt" viewBox="0 0 526.000000 526.000000"
 preserveAspectRatio="xMidYMid meet">
<metadata>
Created by potrace 1.11, written by Peter Selinger 2001-2013
</metadata>
<g transform="translate(0.000000,526.000000) scale(0.100000,-0.100000)"
fill="#000000" stroke="none">
<path d="M2438 5255 c-1 -1 -34 -6 -73 -9 -447 -42 -921 -235 -1290 -523 -198
-155 -414 -387 -545 -588 -33 -49 -64 -95 -70 -102 -5 -7 -41 -72 -79 -145
-122 -233 -205 -464 -254 -708 -45 -221 -52 -301 -51 -565 0 -268 25 -455 91
-690 14 -49 27 -97 28 -105 18 -74 120 -314 187 -440 75 -139 214 -352 273
-416 5 -6 30 -36 55 -65 184 -221 476 -457 745 -600 195 -104 514 -221 664
-244 14 -3 63 -11 109 -20 138 -25 198 -29 397 -30 199 0 270 5 421 30 78 12
123 22 234 49 8 3 60 19 115 36 832 267 1475 954 1704 1820 67 250 86 406 86
685 0 279 -14 399 -79 670 -51 210 -175 509 -284 685 -232 373 -508 663 -822
864 -125 80 -127 81 -185 113 -251 136 -565 239 -850 279 -27 3 -59 9 -70 11
-23 5 -451 13 -457 8z m392 -540 c89 -10 126 -16 195 -31 39 -8 80 -17 93 -20
85 -17 325 -106 350 -129 10 -9 -1 -16 -55 -33 -37 -11 -106 -28 -153 -37
-142 -27 -248 -66 -375 -140 -27 -16 -52 -32 -55 -35 -3 -3 -23 -18 -45 -35
-75 -56 -177 -165 -236 -255 -90 -135 -146 -278 -178 -456 -31 -172 -70 -259
-158 -350 -104 -108 -212 -162 -358 -179 -207 -26 -429 -139 -595 -305 -180
-179 -295 -418 -324 -670 -9 -83 -63 -208 -114 -268 l-29 -34 -18 38 c-103
217 -178 579 -178 854 0 75 13 281 18 289 2 3 6 31 10 61 10 81 69 305 106
401 78 204 222 460 324 575 6 7 26 31 45 55 41 50 157 168 220 223 239 208
542 363 860 440 56 14 128 28 159 32 31 4 81 10 111 14 59 7 307 4 380 -5z
m1245 -611 c50 -50 110 -117 135 -150 25 -32 48 -61 51 -64 3 -3 33 -47 67
-99 44 -69 59 -99 52 -110 -12 -24 -96 -92 -149 -122 -71 -40 -133 -58 -260
-75 -18 -2 -75 -18 -125 -35 -335 -112 -590 -376 -699 -725 -14 -44 -28 -100
-32 -125 -21 -153 -46 -229 -106 -318 -96 -144 -223 -219 -435 -255 -156 -27
-307 -90 -439 -184 -93 -66 -207 -178 -251 -248 -10 -16 -21 -31 -25 -34 -13
-11 -80 -139 -107 -206 -16 -39 -37 -100 -45 -135 -16 -63 -20 -85 -33 -164
-12 -83 -72 -225 -93 -225 -9 0 -143 95 -211 149 -89 71 -218 195 -267 259
l-26 33 67 68 c64 65 165 196 166 215 0 5 6 17 13 25 38 45 111 263 122 366
17 148 75 274 172 371 96 96 190 144 319 163 181 26 310 76 459 176 215 145
377 373 444 626 18 69 24 100 36 189 10 79 34 144 80 219 91 147 226 235 407
262 78 11 171 33 216 50 15 6 28 10 30 10 1 -1 37 16 80 38 71 36 233 148 248
172 8 13 26 -2 139 -117z m543 -1006 c58 -268 64 -547 17 -848 -13 -83 -62
-265 -100 -365 -231 -618 -719 -1081 -1335 -1269 -285 -87 -632 -113 -900 -67
-76 13 -203 42 -217 50 -9 5 -6 20 12 59 38 82 74 205 90 310 28 176 78 283
176 381 81 81 195 140 299 156 25 4 57 8 71 11 63 10 206 57 272 90 166 83
328 222 415 354 23 36 45 70 50 75 12 16 58 114 82 175 23 58 55 187 65 260
13 96 66 224 115 280 12 14 27 32 34 41 25 34 125 106 184 133 36 15 113 37
175 48 168 29 325 88 436 164 19 13 37 21 41 19 4 -2 12 -28 18 -57z"/>
</g>
</svg>
