<svg width="638" height="276" viewBox="0 0 638 276" fill="none" xmlns="http://www.w3.org/2000/svg">
<path d="M253.013 -156.642C209.562 -137.717 235.965 -81.7349 199.904 -55.3151C152.723 -20.7479 63.9968 -31.9141 27.2196 8.78432C-10.1079 50.0916 -3.79696 104.95 15.0987 149.195C35.5356 197.048 74.8732 242.552 135.945 263.365C196.298 283.933 271.596 276.912 338.198 259.307C397.214 243.707 433.631 201.132 483.28 171.55C531.279 142.952 600.862 129.638 625.2 88.308C649.581 46.907 633.945 -1.10224 606.703 -38.0331C582.607 -70.6968 529.354 -81.5787 486.035 -100.347C452.935 -114.687 419.77 -126.093 382.877 -135.005C340.12 -145.335 294.463 -174.695 253.013 -156.642Z" fill="#2AB1AD"/>
</svg>
