<svg width="76" height="76" viewBox="0 0 76 76" fill="none" xmlns="http://www.w3.org/2000/svg">
<g clip-path="url(#clip0)">
<path d="M74.2432 15.9588C73.8304 15.2971 73.1166 14.9022 72.3358 14.9022H57.9241C56.4995 6.45875 49.1543 0.000244141 40.3115 0.000244141C30.4508 0.000244141 22.4291 8.02197 22.4291 17.8826C22.4291 26.3424 28.6015 31.2467 30.9247 33.093C31.0871 33.2227 31.2332 33.3374 31.3569 33.4373C31.2958 34.4193 31.0067 36.6188 29.6223 37.589C28.6298 38.2864 27.1098 38.2893 25.1085 37.5919C23.35 36.9795 21.6915 35.9021 20.1789 34.388L11.3227 25.5318C10.6834 24.8955 9.81757 24.5646 8.90408 24.6317C8.00252 24.6988 7.17546 25.1548 6.63452 25.885C4.33365 28.9935 0.618594 35.5936 1.56636 44.7389C1.57232 44.9937 1.73475 51.0722 4.01028 57.8601C7.08903 67.0427 12.5938 73.0437 19.9271 75.2149C21.7078 75.7439 23.666 76.0002 25.9132 76.0002H36.1329C40.7034 76.0002 45.1233 74.6769 48.9129 72.1749L49.2973 71.9201C59.9314 64.7701 63.7776 51.1006 58.2445 40.1238C56.6038 36.8692 54.3446 34.2762 51.5148 32.4016C52.0825 31.6922 52.7546 30.8071 53.449 29.8042H61.4052C63.1711 29.8042 64.8058 29.3497 66.1351 28.4928C70.1526 25.8984 73.0108 20.8853 74.358 18.127C74.6977 17.4281 74.656 16.6174 74.2432 15.9588ZM55.5845 41.465C60.4425 51.1035 57.0255 63.1339 47.5836 69.4806L47.2737 69.6878C43.9699 71.8679 40.1177 73.0199 36.1329 73.0199H25.9132C23.9566 73.0199 22.2771 72.8023 20.7735 72.3582C5.27546 67.7684 4.55271 44.9013 4.5393 44.5526C3.68691 36.288 6.98769 30.4196 9.03075 27.6583L7.83263 26.7716L9.21554 27.6389L18.0718 36.4937C19.9032 38.3281 21.9418 39.6439 24.1264 40.4054C27.086 41.4366 29.5075 41.3085 31.3345 40.0269C34.0064 38.1522 34.3343 34.5415 34.3507 33.0841C34.3611 32.4925 34.1301 31.9396 33.7024 31.5298C33.5057 31.3421 33.1868 31.0842 32.777 30.7579C30.5715 29.0054 25.408 24.9029 25.408 17.8811C25.408 9.66417 32.093 2.97915 40.31 2.97915C47.9681 2.97915 54.2895 8.78793 55.1151 16.23L55.1419 16.5265C55.1821 16.9736 55.2119 17.4236 55.2119 17.8811C55.2119 18.3416 55.1553 18.8259 55.0719 19.3191C55.0569 19.4086 55.0435 19.4965 55.0257 19.5874C54.823 20.6305 54.4609 21.7303 53.9751 22.8509C53.9661 22.8718 53.9572 22.8926 53.9482 22.9135C53.4475 24.0565 52.8261 25.2144 52.1362 26.3439C52.078 26.4378 52.0155 26.5332 51.9559 26.6286C50.9202 28.2901 49.7504 29.8817 48.6029 31.2511C48.2035 31.7265 48.0351 32.3494 48.1395 32.9589C48.2453 33.5803 48.6208 34.1213 49.1692 34.4461C51.8888 36.054 54.0481 38.4145 55.5845 41.465ZM64.5197 25.9878C63.6733 26.5347 62.5959 26.8238 61.4052 26.8238H55.3267C55.5457 26.4363 55.7573 26.0414 55.963 25.6391C55.9853 25.5973 56.0062 25.5556 56.0271 25.5139C56.188 25.1965 56.343 24.8746 56.492 24.5497C56.5337 24.4573 56.5784 24.365 56.6187 24.274C56.7349 24.0133 56.8437 23.7525 56.9495 23.4887C56.9987 23.3665 57.0523 23.2443 57.0985 23.1236C57.182 22.906 57.2565 22.687 57.3325 22.4679C57.3831 22.3189 57.4413 22.1684 57.4875 22.0224C57.5262 21.9031 57.5545 21.7824 57.5903 21.6617C57.7482 21.1268 57.8794 20.6022 57.9733 20.0926C57.9837 20.0404 57.9971 19.9868 58.006 19.9346C58.0508 19.6798 58.0791 19.4324 58.1074 19.185C58.1193 19.0882 58.1372 18.9913 58.1461 18.8944C58.1774 18.5517 58.1938 18.2134 58.1938 17.8841H71.1377C69.8978 20.2103 67.5314 24.0431 64.5197 25.9878Z" fill="#5D62B5"/>
<path d="M50.7427 14.9022C50.7427 10.7937 47.4001 7.45117 43.2917 7.45117C39.1832 7.45117 35.8407 10.7937 35.8407 14.9022C35.8407 19.0106 39.1832 22.3531 43.2917 22.3531C47.4001 22.3531 50.7427 19.0106 50.7427 14.9022ZM38.8211 14.9022C38.8211 12.4374 40.8269 10.4316 43.2917 10.4316C45.3481 10.4316 47.0678 11.8353 47.5864 13.7294C47.1885 13.5327 46.746 13.412 46.2721 13.412C44.6254 13.412 43.2917 14.7457 43.2917 16.3923C43.2917 17.5592 43.9682 18.5576 44.9443 19.0479C44.4317 19.252 43.8758 19.3727 43.2917 19.3727C40.8269 19.3727 38.8211 17.3669 38.8211 14.9022Z" fill="#5D62B5"/>
<path d="M40.1224 44.0414C37.7366 42.7494 34.8039 42.9685 31.3914 44.6986C27.9192 46.4615 23.9329 47.8295 19.206 48.8816L18.6413 49.0068C17.9528 49.1602 17.3686 49.6043 17.0423 50.2257C16.7159 50.8427 16.6772 51.5669 16.9365 52.2151C18.1808 55.3446 22.9986 65.5405 32.7951 65.5867C32.9159 65.5956 33.1453 65.6105 33.4583 65.6105C34.9142 65.6105 38.1807 65.311 40.8675 62.8984C43.4664 60.5632 44.7838 56.9555 44.7838 52.1764L44.7748 52.0169C44.748 51.78 44.1057 46.2022 40.1224 44.0414ZM38.899 60.6586C36.4104 62.9162 33.0455 62.6152 33.0202 62.6152L32.8622 62.6063C25.4544 62.6063 21.3743 54.9973 19.9765 51.7636C24.8971 50.6609 29.0741 49.2184 32.743 47.3556C35.2167 46.0994 37.2195 45.8595 38.6933 46.6552C41.1224 47.9636 41.7274 51.7189 41.8034 52.2673C41.7855 56.1016 40.8094 58.924 38.899 60.6586Z" fill="#5D62B5"/>
</g>
<defs>
<clipPath id="clip0">
<rect width="76" height="76" fill="white" transform="translate(0 0.000244141)"/>
</clipPath>
</defs>
</svg>
