<svg width="76" height="76" viewBox="0 0 76 76" fill="none" xmlns="http://www.w3.org/2000/svg">
<g clip-path="url(#clip0)">
<path d="M67.1323 8.49705V1.26691C67.1323 0.567399 66.5658 0.000244141 65.8656 0.000244141H25.3323C24.6328 0.000244141 24.0656 0.567399 24.0656 1.26691V8.54406L16.6203 22.1935C16.5188 22.3797 16.4656 22.5881 16.4656 22.8002V49.4002H18.999V23.1231L26.085 10.1336H63.7318L57.1536 22.1935C57.0522 22.3797 56.999 22.5881 56.999 22.8002V68.4002H46.8656V70.9336H69.6656C73.162 70.9292 75.9953 68.0966 75.999 64.6002V22.8002C75.9983 22.5597 75.9303 22.324 75.8017 22.1199L67.1323 8.49705ZM26.599 7.60024V2.53358H64.599V7.60024H26.599ZM73.4656 64.6002C73.4656 66.6988 71.7648 68.4002 69.6656 68.4002H59.5323V23.1231L65.9497 11.3582L73.4656 23.1689V64.6002Z" fill="#5D62B5"/>
<path d="M18.2548 53.5323C17.6839 53.3128 17.0778 53.2002 16.4661 53.2002C14.1567 53.2027 12.1404 54.7644 11.5609 57.0002H11.3995C8.60142 57.0002 6.3328 59.2688 6.3328 62.0669H5.06613C4.52124 62.0675 4.03758 62.4163 3.86564 62.9334L0.0656429 74.3334C-0.0630029 74.7193 0.0019385 75.1436 0.239438 75.4739C0.477557 75.8041 0.859165 76.0002 1.26613 76.0002H44.3328C44.7398 76.0002 45.122 75.8041 45.3601 75.4739C45.5976 75.1436 45.6626 74.7193 45.5339 74.3334L41.7339 62.9334C41.562 62.4163 41.0783 62.0675 40.5328 62.0669H39.2661C39.2661 59.2688 36.9981 57.0002 34.1995 57.0002H34.0387C33.4591 54.7644 31.4429 53.2027 29.1328 53.2002C28.5217 53.2002 27.9156 53.3128 27.3447 53.5323C26.5079 51.7814 24.7397 50.6675 22.7995 50.6675C20.8593 50.6675 19.0916 51.7814 18.2548 53.5323ZM39.6199 64.6002L42.5751 73.4669H3.0245L5.97964 64.6002H39.6199ZM25.3062 55.561C25.3396 56.0471 25.6488 56.4701 26.101 56.6507C26.5531 56.8313 27.0683 56.7367 27.427 56.4077C28.163 55.7212 29.2367 55.5387 30.1583 55.9426C31.0798 56.3471 31.6729 57.2606 31.6661 58.2669C31.6661 58.9664 32.2333 59.5335 32.9328 59.5335H34.1995C35.5991 59.5335 36.7328 60.6678 36.7328 62.0669H8.86613C8.86613 60.6678 10.0004 59.5335 11.3995 59.5335H12.6661C13.3663 59.5335 13.9328 58.9664 13.9328 58.2669C13.9278 57.2618 14.5204 56.3495 15.4407 55.9451C16.361 55.5412 17.4341 55.723 18.1701 56.4077C18.5288 56.7367 19.044 56.8313 19.4961 56.6507C19.9482 56.4701 20.2569 56.0471 20.2903 55.561C20.3744 54.2374 21.4728 53.2064 22.7995 53.2064C24.1261 53.2064 25.2246 54.2374 25.3093 55.561H25.3062Z" fill="#5D62B5"/>
<path d="M31.6652 30.4001H34.1986V32.9335H31.6652V30.4001Z" fill="#5D62B5"/>
<path d="M44.3319 30.4001H46.8652V32.9335H44.3319V30.4001Z" fill="#5D62B5"/>
<path d="M50.6328 15.5084L45.127 20.2671H33.9905L28.0029 15.4781C27.4988 15.0742 26.7721 15.1151 26.3156 15.5715C24.8275 17.0571 24.0148 19.0888 24.0686 21.1905C24.1225 23.2927 25.0372 25.2799 26.5989 26.6876V40.5337C26.5989 47.5295 32.2704 53.2004 39.2656 53.2004C46.2613 53.2004 51.9323 47.5295 51.9323 40.5337V26.841C53.4426 25.4432 54.3468 23.511 54.4532 21.4564C54.5819 19.3084 53.8378 17.1987 52.3912 15.6055C51.9273 15.1045 51.1493 15.0612 50.6328 15.5084ZM26.6082 21.287C26.55 20.2151 26.8277 19.1526 27.4035 18.2465L31.3087 21.3717L28.0901 24.5891C27.2112 23.7046 26.6842 22.5307 26.6082 21.287ZM39.2656 50.6671C37.8925 50.6671 36.7322 49.7969 36.7322 48.7671C36.7322 47.7373 37.8925 46.8671 39.2656 46.8671C40.6386 46.8671 41.7989 47.7373 41.7989 48.7671C41.7989 49.7969 40.6386 50.6671 39.2656 50.6671ZM49.3989 40.5337C49.3952 44.1773 47.4352 47.5375 44.2667 49.3361C44.3026 49.1481 44.3248 48.9582 44.3322 48.7671C44.1436 46.1509 41.8843 44.1735 39.2656 44.3337C36.6475 44.1735 34.3882 46.1509 34.1989 48.7671C34.2069 48.9582 34.2292 49.1481 34.2651 49.3361C31.0959 47.5375 29.1366 44.1773 29.1322 40.5337V27.1249L33.4567 22.8004H45.0751L47.6084 25.3337H45.5989C42.1014 25.3337 39.2656 28.1695 39.2656 31.6671C39.2656 35.1646 42.1014 38.0004 45.5989 38.0004H49.3989V40.5337ZM49.3989 35.4671H45.5989C43.5004 35.4671 41.7989 33.7656 41.7989 31.6671C41.7989 29.5685 43.5004 27.8671 45.5989 27.8671H49.3989V35.4671ZM50.5128 24.6559L47.4587 21.6024L51.2501 18.3238C51.751 19.2379 51.9848 20.2751 51.9236 21.316C51.855 22.5592 51.3558 23.7399 50.5128 24.6559Z" fill="#5D62B5"/>
<path d="M69.6654 55.7336H63.3321C62.6326 55.7336 62.0654 56.3008 62.0654 57.0003V62.067C62.0654 62.7665 62.6326 63.3336 63.3321 63.3336H69.6654C70.3656 63.3336 70.9321 62.7665 70.9321 62.067V57.0003C70.9321 56.3008 70.3656 55.7336 69.6654 55.7336ZM68.3988 60.8003H64.5988V58.267H68.3988V60.8003Z" fill="#5D62B5"/>
<path d="M62.0654 50.667H68.3988V53.2003H62.0654V50.667Z" fill="#5D62B5"/>
<path d="M62.0654 45.6003H70.9321V48.1337H62.0654V45.6003Z" fill="#5D62B5"/>
<path d="M46.8653 63.3335H54.4653V65.8668H46.8653V63.3335Z" fill="#5D62B5"/>
<path d="M46.8653 58.2668H54.4653V60.8002H46.8653V58.2668Z" fill="#5D62B5"/>
<path d="M62.0654 40.5334H70.9321V43.0668H62.0654V40.5334Z" fill="#5D62B5"/>
<path d="M62.0654 35.467H65.8654V38.0004H62.0654V35.467Z" fill="#5D62B5"/>
<path d="M68.3987 35.467H70.9321V38.0004H68.3987V35.467Z" fill="#5D62B5"/>
<path d="M62.0654 22.8003H70.9321V25.3336H62.0654V22.8003Z" fill="#5D62B5"/>
<path d="M62.0654 27.8669H70.9321V30.4003H62.0654V27.8669Z" fill="#5D62B5"/>
</g>
<defs>
<clipPath id="clip0">
<rect width="76" height="76" fill="white" transform="translate(0 0.000244141)"/>
</clipPath>
</defs>
</svg>
