<svg width="76" height="76" viewBox="0 0 76 76" fill="none" xmlns="http://www.w3.org/2000/svg">
<path d="M26.6002 53.2002H19.0002C18.3007 53.2002 17.7336 53.7674 17.7336 54.4669V62.0669C17.7336 62.7664 18.3007 63.3335 19.0002 63.3335H26.6002C27.2997 63.3335 27.8669 62.7664 27.8669 62.0669V54.4669C27.8669 53.7674 27.2997 53.2002 26.6002 53.2002ZM25.3336 60.8002H20.2669V55.7335H25.3336V60.8002Z" fill="#5D62B5"/>
<path d="M44.3332 39.2668H31.6666C30.2675 39.2668 29.1332 40.4012 29.1332 41.8002V46.8668C29.1332 48.2659 30.2675 49.4002 31.6666 49.4002H44.3332C45.7322 49.4002 46.8666 48.2659 46.8666 46.8668V41.8002C46.8666 40.4012 45.7322 39.2668 44.3332 39.2668ZM44.3332 43.0668H39.2666V41.8002H44.3332V43.0668ZM36.7332 41.8002V43.0668H31.6666V41.8002H36.7332ZM31.6666 45.6002H36.7332V46.8668H31.6666V45.6002ZM39.2666 46.8668V45.6002H44.3332V46.8668H39.2666Z" fill="#5D62B5"/>
<path d="M69.5566 64.6873C69.2411 63.0217 68.2714 61.5516 66.8631 60.6071C65.4554 59.6621 63.7279 59.3207 62.0667 59.6602V37.2579L64.3378 39.529C65.8815 41.0728 68.3852 41.0728 69.9289 39.529C71.4727 37.9853 71.4727 35.4816 69.9289 33.9379L62.0667 26.0756V10.1334C63.4657 10.1334 64.6 8.99914 64.6 7.60011V5.06678C64.6 3.66776 63.4657 2.53345 62.0667 2.53345H49.4C48.001 2.53345 46.8667 3.66776 46.8667 5.06678V7.60011C46.8667 8.99914 48.001 10.1334 49.4 10.1334V13.409L40.6867 4.69569C39.1832 3.26079 36.8168 3.26079 35.3133 4.69569L6.07109 33.9379C4.52734 35.4816 4.52734 37.9853 6.07109 39.529C7.61484 41.0728 10.1185 41.0728 11.6622 39.529L13.9333 37.2579V63.8171C12.5541 62.2171 10.3232 61.6456 8.34466 62.3859C6.36549 63.1256 5.05739 65.0207 5.06667 67.1334C2.26862 67.1334 0 69.4021 0 72.2001C0 72.8996 0.567155 73.4668 1.26667 73.4668H74.7333C75.4328 73.4668 76 72.8996 76 72.2001C75.995 68.4508 73.2613 65.2631 69.5566 64.6873ZM58.2568 62.1187C58.2568 62.1008 58.2667 62.086 58.2667 62.0668V54.4668C58.2667 53.7673 57.6995 53.2001 57 53.2001H49.4C48.7005 53.2001 48.1333 53.7673 48.1333 54.4668V62.0668C48.1333 62.7663 48.7005 63.3334 49.4 63.3334H57C57.2307 63.3273 57.4552 63.2568 57.6476 63.1293C57.227 63.981 57.0056 64.9174 57 65.8668V65.9936C54.518 66.5075 52.5803 68.4502 52.0725 70.9334H46.8667V51.9334C46.8667 51.2339 46.2995 50.6668 45.6 50.6668H30.4C29.7005 50.6668 29.1333 51.2339 29.1333 51.9334V70.9334H21.4208C20.9563 68.2177 19.0618 65.9645 16.4667 65.0411V35.4668H59.5333V60.8329C59.0478 61.1978 58.618 61.6307 58.2568 62.1187ZM55.7333 55.7334V60.8001H50.6667V55.7334H55.7333ZM49.4 5.06678H62.0667V7.60011H49.4V5.06678ZM51.9333 10.1334H59.5333V23.5423L51.9333 15.9423V10.1334ZM9.87109 37.7379C9.31631 38.2927 8.41702 38.2927 7.86224 37.7379C7.30745 37.1831 7.30745 36.2838 7.86224 35.729L37.1044 6.48683C37.5992 5.99204 38.4008 5.99204 38.8956 6.48683L68.1378 35.729C68.6925 36.2838 68.6925 37.1831 68.1378 37.7379C67.583 38.2927 66.6837 38.2927 66.1289 37.7379L40.6867 12.2957C39.203 10.8119 36.797 10.8119 35.3133 12.2957L9.87109 37.7379ZM37.1044 14.0868C37.5992 13.592 38.4008 13.592 38.8956 14.0868L57.7422 32.9334H18.2578L37.1044 14.0868ZM2.87412 70.9334C3.54085 69.7849 4.98441 69.3495 6.175 69.9377C6.66175 70.1777 7.24684 70.0812 7.63031 69.6971C8.01439 69.3136 8.11087 68.7285 7.8709 68.2418C7.69648 67.8979 7.60371 67.5188 7.6 67.1334C7.59443 65.8971 8.48506 64.8395 9.7041 64.6341C10.9231 64.4288 12.1113 65.1363 12.5108 66.3065C12.6945 66.8329 13.201 67.178 13.7583 67.1551C13.8177 67.1557 13.8764 67.1483 13.9333 67.1334C16.2428 67.1372 18.259 68.6982 18.8404 70.9334H2.87412ZM31.6667 70.9334V53.2001H44.3333V70.9334H31.6667ZM54.6831 70.9334C55.2027 69.4361 56.6035 68.4236 58.1881 68.4001C58.2314 68.4001 58.3576 68.4193 58.4009 68.4205C58.8017 68.4323 59.1851 68.2579 59.4393 67.948C59.6917 67.6344 59.7795 67.2194 59.6762 66.831C59.5865 66.5168 59.5389 66.1927 59.5333 65.8668C59.5333 63.7682 61.2348 62.0668 63.3333 62.0668C65.4319 62.0668 67.1333 63.7682 67.1333 65.8668C67.1333 66.5663 67.7005 67.1334 68.4 67.1334C70.7094 67.1372 72.7257 68.6982 73.3071 70.9334H54.6831Z" fill="#5D62B5"/>
<path d="M35.4665 57.0002H32.9331V59.5336H34.1998V62.0669H32.9331V64.6003H35.4665C36.166 64.6003 36.7331 64.0331 36.7331 63.3336V58.2669C36.7331 57.5674 36.166 57.0002 35.4665 57.0002Z" fill="#5D62B5"/>
</svg>
