<svg width="63" height="63" viewBox="0 0 63 63" fill="none" xmlns="http://www.w3.org/2000/svg">
<path d="M60.0469 23.9585V25.2258C60.0469 29.2107 59.06 33.1336 57.1744 36.6441C55.2888 40.1547 52.5632 43.1436 49.2409 45.344L38.3906 52.5299L34.4531 55.1373L31.5 57.0938L30.5156 56.449L27.5625 54.5135L26.1475 53.5869L15.5371 46.636L14.143 45.723L13.8588 45.536C10.5087 43.3411 7.75774 40.3468 5.85386 36.8232C3.94998 33.2997 2.9531 29.3576 2.95313 25.3526V22.5065C2.9532 19.3799 3.84488 16.3181 5.52357 13.6804C6.84733 11.5995 8.67475 9.88636 10.8366 8.6995C12.9984 7.51265 15.4248 6.89049 17.891 6.89063H18.2638C20.5397 6.89073 22.7843 7.42071 24.8198 8.43859C26.8554 9.45647 28.626 10.9343 29.9914 12.755L31.5 14.7656L33.0086 12.755C34.4598 10.8199 36.3674 9.27387 38.5612 8.25491C40.755 7.23596 43.1669 6.77571 45.5818 6.91521C47.9966 7.0547 50.3395 7.7896 52.4014 9.05438C54.4632 10.3192 56.1801 12.0745 57.3989 14.1639C59.1324 17.1371 60.0461 20.5169 60.0469 23.9585Z" fill="#5D62B5"/>
<path d="M34.4531 46.7578V55.125V55.1373L38.3906 52.5299V43.6816L34.4531 46.7578Z" fill="#EA9D2D"/>
<path d="M44.2969 20.6719V23.1328C44.297 23.456 44.2334 23.7761 44.1098 24.0747C43.9862 24.3733 43.8049 24.6446 43.5763 24.8732C43.3478 25.1017 43.0765 25.283 42.7779 25.4066C42.4792 25.5303 42.1592 25.5938 41.836 25.5938H39.375V31.5L39.0148 32.4859L39.6384 33.4688L40.1182 37.0666C40.2363 37.9473 40.2734 38.837 40.229 39.7245C40.1451 41.4114 39.4978 43.0214 38.3907 44.2969L34.4532 47.25V55.1373L31.5 57.0938L30.5157 56.449V49.2188L26.1475 53.5869L15.5372 46.636L23.625 35.4375L25.5938 32.4844L28.1716 29.9065L29.4751 29.5875L29.5313 28.5469V25.8054C29.5315 23.1484 30.5871 20.6003 32.466 18.7216C33.1084 18.0797 33.9794 17.7191 34.8875 17.7188H37.0187C37.8975 17.7189 38.7402 18.0681 39.3615 18.6896L41.3438 20.6719H44.2969Z" fill="#FBB540"/>
<path d="M35.4375 20.6719H37.4062V22.6406H35.4375V20.6719Z" fill="#985713"/>
<path d="M39.6387 33.4687H38.2187C36.2375 33.4661 34.2838 33.005 32.5105 32.1214L28.1719 29.9066L29.5315 28.5469V28.3906L33.3989 30.3643C34.8963 31.1099 36.546 31.4986 38.2187 31.5H39.3753L39.6387 33.4687Z" fill="#5D62B5"/>
<path d="M31.745 29.5312H29.5312V27.5625H31.745C31.941 27.5623 32.129 27.4843 32.2676 27.3456C32.4062 27.207 32.4842 27.019 32.4844 26.823V23.625H34.4531V26.823C34.4523 27.541 34.1667 28.2294 33.659 28.7371C33.1513 29.2448 32.463 29.5304 31.745 29.5312Z" fill="#985713"/>
<path d="M31.5003 35.4375V37.4062C31.5001 38.1894 31.1889 38.9404 30.6351 39.4942C30.0813 40.048 29.3303 40.3592 28.5471 40.3594V43.94C28.5475 44.8147 28.2885 45.6699 27.8027 46.3973L26.5784 48.2344V51.1875L26.9365 51.9036L27.2342 52.5004L27.5628 53.1562V54.5135L26.1477 53.5869L15.5374 46.636L14.1433 45.723L19.6878 37.4062V34.3252C19.6878 34.2501 19.689 34.1738 19.6915 34.0987C19.7538 32.6591 20.3 31.2826 21.2419 30.192L22.6409 28.5469L23.6253 32.4844H25.9824C26.4685 32.4844 26.9471 32.6044 27.3756 32.8339C27.8042 33.0634 28.1694 33.3952 28.4389 33.7997C28.7751 34.3035 29.2304 34.7165 29.7644 35.0022C30.2984 35.2878 30.8946 35.4374 31.5003 35.4375Z" fill="#E4E4E2"/>
<path d="M24.6094 35.4375H26.5781V37.4062H24.6094V35.4375Z" fill="#29C3BE"/>
</svg>
