<svg width="76" height="76" viewBox="0 0 76 76" fill="none" xmlns="http://www.w3.org/2000/svg">
<g clip-path="url(#clip0)">
<path d="M72.2002 0.000244141H31.6669C31.4745 0.00362277 31.2855 0.0513019 31.1146 0.139577C21.0925 1.10871 13.2717 9.23699 12.6897 19.289C12.5772 21.7713 12.9206 24.2532 13.703 26.6116C6.16121 26.8807 0.204426 33.1051 0.26688 40.6514C0.329335 48.1978 6.38833 54.3227 13.9335 54.4669H63.3335C66.1318 54.4669 68.4002 56.7353 68.4002 59.5336C68.4002 62.3318 66.1318 64.6002 63.3335 64.6002H36.7335C36.7335 63.2011 35.5993 62.0669 34.2002 62.0669H24.0669C22.6678 62.0669 21.5335 63.2011 21.5335 64.6002H18.4555C17.9425 64.5706 17.5049 64.2185 17.3662 63.7237C16.4512 61.2155 14.0701 59.5432 11.4002 59.5336H6.33354C2.83748 59.5378 0.00439833 62.3708 0.000210575 65.8669V72.0609C-0.0240642 73.9518 1.30995 75.5883 3.16688 75.9458C3.37622 75.9806 3.58799 75.9988 3.80021 76.0002C4.80803 76.0002 5.77458 75.5999 6.48722 74.8872C7.19986 74.1746 7.60021 73.2081 7.60021 72.2002V67.1336L10.2741 67.1792C10.9008 70.1009 13.4787 72.191 16.4669 72.2002H21.5335C21.5335 73.5994 22.6678 74.7336 24.0669 74.7336H34.2002C35.5993 74.7336 36.7335 73.5994 36.7335 72.2002H63.3335C70.3292 72.2002 76.0002 66.5292 76.0002 59.5336C76.0002 52.538 70.3292 46.8669 63.3335 46.8669H13.9335C10.4357 46.8669 7.60021 44.0314 7.60021 40.5336C7.60021 37.0358 10.4357 34.2002 13.9335 34.2002H18.2199C18.2364 34.218 18.2503 34.237 18.2668 34.2547C22.0799 38.2818 27.3877 40.5541 32.9335 40.5336C41.7761 40.5336 47.9752 36.7982 52.0754 34.3269L52.5821 34.0191C57.9122 30.8208 70.4687 23.108 74.1889 20.8204C75.3177 20.1333 76.0048 18.9056 76.0002 17.5841V3.80024C76.0002 1.70156 74.2989 0.000244141 72.2002 0.000244141V0.000244141ZM16.4669 69.6669C14.6768 69.6619 13.1317 68.411 12.7543 66.6611C12.5279 65.4683 11.487 64.6038 10.2729 64.6002H7.60021C6.20109 64.6002 5.06688 65.7345 5.06688 67.1336V72.2002C5.06656 72.5757 4.89971 72.9316 4.61136 73.172C4.323 73.4125 3.94285 73.5126 3.57348 73.4454C2.94286 73.2882 2.50885 72.7104 2.53354 72.0609V65.8669C2.53354 63.7682 4.23486 62.0669 6.33354 62.0669H11.4002C13.0022 62.0724 14.4312 63.0753 14.9811 64.58C15.472 66.0881 16.8697 67.1153 18.4555 67.1336H21.5335V69.6669H16.4669ZM43.0669 2.53358V3.80024C43.0669 4.4998 42.4998 5.06691 41.8002 5.06691H34.2002C33.5007 5.06691 32.9335 4.4998 32.9335 3.80024V2.55891C33.1134 2.55891 33.2895 2.53358 33.4706 2.53358H43.0669ZM24.0669 72.2002V64.6002H34.2002V72.2002H24.0669ZM13.9335 31.6669C9.03662 31.6669 5.06688 35.6367 5.06688 40.5336C5.06688 45.4305 9.03662 49.4002 13.9335 49.4002H63.3335C68.93 49.4002 73.4669 53.9371 73.4669 59.5336C73.4669 65.1301 68.93 69.6669 63.3335 69.6669H36.7335V67.1336H63.3335C67.5309 67.1336 70.9335 63.7309 70.9335 59.5336C70.9335 55.3362 67.5309 51.9336 63.3335 51.9336H13.9335C7.6375 51.9336 2.53354 46.8296 2.53354 40.5336C2.53354 34.2375 7.6375 29.1336 13.9335 29.1336H14.6999C15.1366 30.0138 15.6379 30.8606 16.1996 31.6669H13.9335ZM73.4669 17.5841C73.4694 18.0235 73.2416 18.432 72.8665 18.6608C69.1476 20.9484 56.6025 28.6548 51.2812 31.848L50.7682 32.1558C46.9074 34.484 41.0719 38.0002 32.9335 38.0002C28.0812 38.0004 23.4408 36.0122 20.0938 32.4991C16.7468 28.9859 14.9855 24.2547 15.2205 19.4081C15.7143 10.9778 22.0483 4.0471 30.4002 2.79831V3.80024C30.4002 5.89893 32.1015 7.60024 34.2002 7.60024H41.8002C43.8989 7.60024 45.6002 5.89893 45.6002 3.80024V2.53358H72.2002C72.8998 2.53358 73.4669 3.10068 73.4669 3.80024V17.5841Z" fill="#5D62B5"/>
<path d="M67.1335 5.06689H50.6668C48.5681 5.06689 46.8668 6.76821 46.8668 8.8669V17.9502C46.8636 18.959 47.2646 19.927 47.9802 20.638L50.9721 23.6299C51.6887 24.342 52.6586 24.7407 53.6688 24.7382C54.2939 24.7392 54.9094 24.5847 55.4599 24.2886L68.9347 17.0331C70.1659 16.3703 70.9337 15.0849 70.9335 13.6866V8.8669C70.9335 6.76821 69.2321 5.06689 67.1335 5.06689ZM68.4001 13.6866C68.4003 14.1528 68.1444 14.5815 67.7339 14.8025L54.2578 22.058C53.7653 22.32 53.1597 22.2312 52.7632 21.8388L49.7713 18.847C49.5334 18.6092 49.3999 18.2865 49.4002 17.9502V8.8669C49.4002 8.16733 49.9673 7.60023 50.6668 7.60023H67.1335C67.833 7.60023 68.4001 8.16733 68.4001 8.8669V13.6866Z" fill="#5D62B5"/>
</g>
<defs>
<clipPath id="clip0">
<rect width="76" height="76" fill="white" transform="translate(0 0.000244141)"/>
</clipPath>
</defs>
</svg>
