<svg width="63" height="63" viewBox="0 0 63 63" fill="none" xmlns="http://www.w3.org/2000/svg">
<path d="M43.51 37.4062V47.25L44.4944 51.1875L47.4475 52.1719L46.4631 56.1094H41.5413L39.5725 47.25V41.3438L43.51 37.4062Z" fill="#DBDBDB"/>
<path d="M15.7501 55.125H10.918C9.91523 55.125 8.93223 54.8457 8.07921 54.3185C7.22619 53.7912 6.53685 53.0369 6.08845 52.1399C3.52775 47.0207 2.50218 41.2702 3.13533 35.5815L3.15133 35.4375C3.42695 35.547 3.69519 35.6688 3.95851 35.7993C5.16862 36.402 6.25469 37.2268 7.16019 38.2307C8.2658 39.455 9.07609 40.9165 9.52885 42.5029C9.69064 43.0681 9.9681 43.5937 10.3436 44.0461C10.7192 44.4985 11.1846 44.868 11.7105 45.1311L12.0107 45.2812L13.9795 52.1719L14.5701 53.1562L15.7501 55.125Z" fill="#DBDBDB"/>
<path d="M14.57 53.1562H11.9023C10.8995 53.1562 9.91651 52.877 9.06349 52.3497C8.21047 51.8225 7.52113 51.0681 7.07273 50.1711C5.01105 46.049 3.93763 41.5033 3.9375 36.8944C3.9375 36.5302 3.94365 36.1647 3.95842 35.7993C5.16853 36.402 6.2546 37.2268 7.1601 38.2307C8.2657 39.455 9.07599 40.9165 9.52875 42.5029C9.69054 43.0681 9.968 43.5937 10.3436 44.0461C10.7191 44.4985 11.1845 44.868 11.7104 45.1311L12.0106 45.2812L13.9794 52.1719L14.57 53.1562Z" fill="#EAEAE8"/>
<path d="M55.323 9.84375V14.7656L52.3698 16.7344L49.3552 17.3373L47.448 17.7188L47.1772 18.6662L46.0748 22.525L45.8041 23.4724C45.7954 23.502 45.7868 23.5315 45.7807 23.5622C45.7009 23.8559 45.6478 24.1561 45.6219 24.4593C45.5965 24.7519 45.5957 25.0462 45.6195 25.339C45.6318 25.4855 45.649 25.6307 45.6736 25.7759C46.1889 28.8706 45.8058 32.0482 44.5699 34.9318L43.5105 37.4062L39.573 41.3438V47.25L40.4392 51.1481L43.5105 52.1719L42.5261 56.1094H37.6042L34.6511 45.2812L32.958 46.9744C31.4713 48.4613 29.7545 49.6987 27.8737 50.6387L26.7761 51.1875H27.8478C28.6078 51.1878 29.3365 51.4899 29.8739 52.0272C30.4112 52.5646 30.7133 53.2933 30.7136 54.0533V56.1094H16.6825C16.3275 56.1095 15.9759 56.0396 15.6479 55.9038C15.3199 55.768 15.0218 55.5689 14.7707 55.3178C14.5197 55.0668 14.3206 54.7687 14.1848 54.4407C14.0489 54.1127 13.9791 53.7611 13.9792 53.406V52.1719L12.0105 45.2812L13.1905 40.9525C14.3397 36.7401 16.86 33.0309 20.353 30.411L27.1907 25.2824C29.5069 23.5451 31.387 21.2926 32.6823 18.7031L34.6511 16.7344L34.9624 15.8017V15.8004L37.6042 7.875L42.5261 5.90625H47.448L49.4167 9.84375H55.323Z" fill="#EAEAE8"/>
<path d="M45.4788 11.8125C46.0224 11.8125 46.4631 11.3718 46.4631 10.8281C46.4631 10.2845 46.0224 9.84375 45.4788 9.84375C44.9351 9.84375 44.4944 10.2845 44.4944 10.8281C44.4944 11.3718 44.9351 11.8125 45.4788 11.8125Z" fill="#8F563B"/>
<path d="M30.0089 52.1719H23.9451C23.6841 52.1719 23.4337 52.0682 23.2491 51.8836C23.0645 51.699 22.9608 51.4486 22.9608 51.1875C22.9608 50.9265 23.0645 50.6761 23.2491 50.4915C23.4337 50.3069 23.6841 50.2032 23.9451 50.2032C24.6134 50.2055 25.2689 50.0205 25.8374 49.6693C26.4059 49.3181 26.8646 48.8146 27.1616 48.216C27.5175 47.4998 27.6265 46.686 27.4717 45.9015C27.2929 44.9949 26.9083 44.1415 26.3474 43.4072C25.7865 42.6728 25.0644 42.0772 24.2368 41.6662L23.3828 41.2404C23.1492 41.1238 22.9714 40.9191 22.8887 40.6713C22.806 40.4236 22.825 40.1532 22.9417 39.9195C23.0584 39.6859 23.2631 39.5081 23.5108 39.4254C23.7585 39.3427 24.0289 39.3617 24.2626 39.4784L25.1165 39.9054C26.2132 40.4496 27.1701 41.2386 27.9132 42.2115C28.6563 43.1844 29.1658 44.3151 29.4023 45.5163C29.5652 46.3381 29.5413 47.1859 29.3324 47.9972C29.1234 48.8084 28.7348 49.5624 28.1952 50.2032L26.7765 51.1875H27.8482C28.2579 51.187 28.6629 51.2747 29.0357 51.4445C29.4085 51.6144 29.7404 51.8625 30.0089 52.1719Z" fill="#DBDBDB"/>
<path d="M52.3694 9.84375C52.3694 10.627 52.6805 11.3781 53.2343 11.9319C53.7881 12.4857 54.5393 12.7969 55.3225 12.7969V9.84375H52.3694Z" fill="#8F563B"/>
<path d="M49.3558 17.3373L47.4486 17.7187L47.1779 18.6662L44.1841 17.6683C43.9881 17.603 43.8177 17.4776 43.6969 17.31C43.5761 17.1424 43.5111 16.941 43.5111 16.7344V14.7656C43.5111 14.5046 43.6148 14.2542 43.7994 14.0696C43.984 13.885 44.2344 13.7812 44.4954 13.7812C44.7565 13.7812 45.0069 13.885 45.1915 14.0696C45.3761 14.2542 45.4798 14.5046 45.4798 14.7656V16.0244L49.1786 17.2573C49.2402 17.2779 49.2996 17.3047 49.3558 17.3373Z" fill="#DBDBDB"/>
<path d="M46.7883 23.454C46.7929 23.7149 46.6937 23.9669 46.5126 24.1548C46.3315 24.3426 46.0832 24.4508 45.8224 24.4556L45.6218 24.4593L45.1173 24.4692C45.0398 24.4704 44.9623 24.4716 44.886 24.4716C42.579 24.4769 40.3189 23.8212 38.3729 22.5822C36.4269 21.3431 34.8765 19.5726 33.9053 17.4801L34.6509 16.7345L34.9622 15.8018C34.9827 15.8081 35.0029 15.8154 35.0225 15.8239C35.0463 15.8328 35.0693 15.8435 35.0914 15.8559C35.1082 15.8626 35.1242 15.8709 35.1394 15.8805C35.1591 15.8916 35.1776 15.9027 35.196 15.915C35.3551 16.0211 35.48 16.1711 35.5553 16.3469C36.334 18.1763 37.6343 19.7357 39.294 20.8306C40.9536 21.9254 42.899 22.507 44.8872 22.5029C44.9512 22.5029 45.0152 22.5017 45.0804 22.5004L45.7854 22.4881C45.8832 22.4854 45.9807 22.4978 46.0746 22.525C46.2769 22.5838 46.4553 22.7056 46.5836 22.8726C46.712 23.0397 46.7837 23.2434 46.7883 23.454Z" fill="#5D62B5"/>
<path d="M49.4168 24.6094C49.4166 24.9985 49.3011 25.3788 49.0848 25.7022C48.8685 26.0257 48.5611 26.2777 48.2016 26.4266C47.8421 26.5754 47.4465 26.6143 47.0649 26.5383C46.6833 26.4623 46.3328 26.2749 46.0576 25.9998C45.7825 25.7247 45.5951 25.3741 45.5191 24.9925C45.4432 24.6109 45.4821 24.2153 45.6309 23.8558C45.7797 23.4963 46.0318 23.189 46.3552 22.9727C46.6786 22.7564 47.059 22.6408 47.4481 22.6406C47.9702 22.6406 48.471 22.848 48.8402 23.2173C49.2094 23.5865 49.4168 24.0872 49.4168 24.6094Z" fill="#F3AF3E"/>
<path d="M48.2344 24.6094C48.2344 25.0282 48.1009 25.436 47.8533 25.7737C47.6057 26.1113 47.2568 26.3613 46.8575 26.4871C46.4581 26.3613 46.1093 26.1113 45.8617 25.7737C45.6141 25.436 45.4806 25.0282 45.4806 24.6094C45.4806 24.1907 45.6141 23.7829 45.8617 23.4452C46.1093 23.1075 46.4581 22.8576 46.8575 22.7318C47.2568 22.8576 47.6057 23.1076 47.8533 23.4452C48.1009 23.7829 48.2344 24.1907 48.2344 24.6094Z" fill="#EA9D2D"/>
<path d="M56.1094 56.1094C58.284 56.1094 60.0469 54.3465 60.0469 52.1719C60.0469 49.9973 58.284 48.2344 56.1094 48.2344C53.9348 48.2344 52.1719 49.9973 52.1719 52.1719C52.1719 54.3465 53.9348 56.1094 56.1094 56.1094Z" fill="#5D62B5"/>
<path d="M60.0469 52.1719C60.0469 53.2162 59.632 54.2177 58.8936 54.9561C58.1552 55.6945 57.1537 56.1094 56.1094 56.1094C56.7205 54.8868 57.0387 53.5387 57.0387 52.1719C57.0387 50.805 56.7205 49.457 56.1094 48.2344C57.1537 48.2344 58.1552 48.6492 58.8936 49.3876C59.632 50.1261 60.0469 51.1276 60.0469 52.1719Z" fill="#29C3BE"/>
<path d="M41.5421 11.8125V15.1545C41.5414 16.1986 41.1263 17.1998 40.3881 17.9383C39.6499 18.6767 38.6488 19.0921 37.6046 19.0932C37.4964 19.0932 37.3881 19.0883 37.2798 19.0796C36.6149 19.0246 35.9751 18.801 35.4206 18.43L34.1052 17.5539C34.0512 17.5179 34.0009 17.4767 33.9551 17.4308L34.6515 16.7344L34.9628 15.8017C34.9833 15.808 35.0034 15.8154 35.0231 15.8238C35.0469 15.8327 35.0699 15.8434 35.092 15.8558C35.1087 15.8625 35.1248 15.8708 35.14 15.8804C35.1597 15.8915 35.1782 15.9026 35.1966 15.9149L36.512 16.7922C36.8085 16.9898 37.1531 17.1032 37.509 17.1204C37.8649 17.1376 38.2188 17.0579 38.533 16.8898C38.8472 16.7218 39.1099 16.4716 39.2931 16.166C39.4763 15.8604 39.5732 15.5108 39.5734 15.1545V11.8125C39.5734 11.5514 39.6771 11.301 39.8617 11.1164C40.0463 10.9318 40.2967 10.8281 40.5578 10.8281C40.8188 10.8281 41.0692 10.9318 41.2538 11.1164C41.4384 11.301 41.5421 11.5514 41.5421 11.8125Z" fill="#C3C3C3"/>
</svg>
