<svg width="63" height="63" viewBox="0 0 63 63" fill="none" xmlns="http://www.w3.org/2000/svg">
<path d="M56.9954 29.5313C57.1534 28.7573 57.1227 27.9567 56.9061 27.197C56.6894 26.4374 56.2931 25.7411 55.7506 25.1669C55.2081 24.5927 54.5354 24.1575 53.7893 23.8981C53.0432 23.6387 52.2456 23.5626 51.4639 23.6764C51.0634 23.207 50.5258 22.8748 49.9266 22.7268C49.3275 22.5788 48.6971 22.6223 48.124 22.8512C47.4847 21.857 46.6004 21.0441 45.556 20.4907C44.5117 19.9373 43.3424 19.6621 42.1609 19.6914C42.0094 19.2609 41.7602 18.8713 41.4328 18.5533C41.1054 18.2353 40.7088 17.9975 40.274 17.8587C39.8392 17.7198 39.3781 17.6837 38.927 17.753C38.4759 17.8224 38.047 17.9955 37.6741 18.2586C36.0214 16.65 33.8063 15.75 31.5001 15.75C29.1939 15.75 26.9787 16.65 25.3261 18.2586C24.9531 17.9955 24.5242 17.8224 24.0731 17.753C23.622 17.6837 23.161 17.7198 22.7262 17.8587C22.2914 17.9975 21.8947 18.2353 21.5673 18.5533C21.2399 18.8713 20.9907 19.2609 20.8393 19.6914C19.6578 19.6621 18.4886 19.9374 17.4443 20.4908C16.4 21.0442 15.5156 21.857 14.8764 22.8512C14.3033 22.6223 13.6729 22.5788 13.0738 22.7268C12.4747 22.8748 11.937 23.207 11.5365 23.6764C10.7549 23.5635 9.9577 23.6401 9.21197 23.8998C8.46624 24.1595 7.79389 24.5947 7.25158 25.1686C6.70928 25.7426 6.31292 26.4386 6.09593 27.1978C5.87894 27.9571 5.84767 28.7574 6.00477 29.5313L7.87508 30.5156H56.1095L56.9954 29.5313Z" fill="#A45E14"/>
<path d="M60.0469 49.2188H2.95312V45.2812L4.92188 44.2969H59.0625L60.0469 45.2812V49.2188Z" fill="#50559F"/>
<path d="M60.0469 45.2812H2.95312L5.90625 29.5312H57.0938L60.0469 45.2812Z" fill="#5D62B5"/>
<path d="M39.7812 37.4061C40.0828 37.2027 40.3279 36.9261 40.4937 36.6022C40.6594 36.2784 40.7404 35.9178 40.7291 35.5542C40.7178 35.1905 40.6146 34.8357 40.429 34.5228C40.2434 34.2098 39.9816 33.949 39.6679 33.7647C39.3543 33.5803 38.999 33.4785 38.6353 33.4686C38.2717 33.4587 37.9114 33.5411 37.5882 33.7082C37.265 33.8752 36.9894 34.1214 36.7871 34.4238C36.5848 34.7262 36.4624 35.0749 36.4314 35.4374H26.7535C26.7222 35.0752 26.5997 34.7268 26.3974 34.4247C26.1951 34.1227 25.9196 33.8768 25.5965 33.71C25.2735 33.5432 24.9135 33.4609 24.5501 33.4708C24.1866 33.4808 23.8316 33.5826 23.5182 33.7668C23.2048 33.951 22.9431 34.2116 22.7576 34.5243C22.5721 34.8369 22.4688 35.1915 22.4574 35.5549C22.4459 35.9183 22.5267 36.2786 22.6922 36.6023C22.8577 36.9261 23.1024 37.2026 23.4037 37.4061C23.1021 37.6096 22.857 37.8862 22.6912 38.2101C22.5254 38.5339 22.4444 38.8945 22.4558 39.2581C22.4671 39.6218 22.5703 39.9766 22.7559 40.2895C22.9415 40.6025 23.2033 40.8633 23.517 41.0476C23.8306 41.232 24.1859 41.3338 24.5496 41.3437C24.9132 41.3536 25.2735 41.2712 25.5967 41.1041C25.9199 40.9371 26.1955 40.6909 26.3978 40.3885C26.6001 40.0861 26.7225 39.7374 26.7535 39.3749H36.4314C36.4627 39.7371 36.5852 40.0855 36.7875 40.3876C36.9898 40.6896 37.2653 40.9355 37.5884 41.1023C37.9114 41.2691 38.2714 41.3514 38.6348 41.3415C38.9982 41.3315 39.3532 41.2297 39.6667 41.0455C39.9801 40.8613 40.2418 40.6007 40.4273 40.288C40.6128 39.9753 40.7161 39.6208 40.7275 39.2574C40.7389 38.894 40.6581 38.5337 40.4927 38.21C40.3272 37.8862 40.0824 37.6097 39.7812 37.4061Z" fill="#29C3BE"/>
<path d="M23.625 23.625C25.256 23.625 26.5781 22.3028 26.5781 20.6719C26.5781 19.0409 25.256 17.7188 23.625 17.7188C21.994 17.7188 20.6719 19.0409 20.6719 20.6719C20.6719 22.3028 21.994 23.625 23.625 23.625Z" fill="#62B58F"/>
<path d="M27.5625 25.5938C29.1935 25.5938 30.5156 24.2716 30.5156 22.6406C30.5156 21.0097 29.1935 19.6875 27.5625 19.6875C25.9315 19.6875 24.6094 21.0097 24.6094 22.6406C24.6094 24.2716 25.9315 25.5938 27.5625 25.5938Z" fill="#F2726F"/>
<path d="M13.7812 28.5469C15.4122 28.5469 16.7344 27.2247 16.7344 25.5938C16.7344 23.9628 15.4122 22.6406 13.7812 22.6406C12.1503 22.6406 10.8281 23.9628 10.8281 25.5938C10.8281 27.2247 12.1503 28.5469 13.7812 28.5469Z" fill="#F2726F"/>
<path d="M49.2188 28.5469C50.8497 28.5469 52.1719 27.2247 52.1719 25.5938C52.1719 23.9628 50.8497 22.6406 49.2188 22.6406C47.5878 22.6406 46.2656 23.9628 46.2656 25.5938C46.2656 27.2247 47.5878 28.5469 49.2188 28.5469Z" fill="#62B58F"/>
<path d="M39.375 23.625C41.006 23.625 42.3281 22.3028 42.3281 20.6719C42.3281 19.0409 41.006 17.7188 39.375 17.7188C37.744 17.7188 36.4219 19.0409 36.4219 20.6719C36.4219 22.3028 37.744 23.625 39.375 23.625Z" fill="#F2726F"/>
</svg>
