<svg width="63" height="63" viewBox="0 0 63 63" fill="none" xmlns="http://www.w3.org/2000/svg">
<g clip-path="url(#clip0)">
<path d="M0 47.5169V61.3983H4.27119V59.2627C4.27119 56.9039 6.18363 54.9915 8.54237 54.9915H42.7119C45.0706 54.9915 46.9831 56.9039 46.9831 59.2627V61.3983H51.2542V47.5169H0Z" fill="#D9C2A0"/>
<path d="M46.9831 18.6864C45.214 18.6864 43.7797 17.2521 43.7797 15.483L44.8475 13.3474H49.1186L50.1864 15.483C50.1864 17.2521 48.7521 18.6864 46.9831 18.6864Z" fill="#F7BA61"/>
<path d="M40.5761 15.4831L44.8473 10.1441L45.9151 9.07629H48.0507L49.1185 10.1441L53.3897 15.4831H40.5761Z" fill="#E4E4E2"/>
<path d="M58.7287 62.4661C58.139 62.4661 57.6609 61.988 57.6609 61.3983V5.87286C57.6609 4.1038 56.2266 2.66947 54.4575 2.66947H51.2541C49.4851 2.66947 48.0507 4.1038 48.0507 5.87286C48.0507 6.46254 47.5726 6.94065 46.9829 6.94065C46.3932 6.94065 45.9151 6.46254 45.9151 5.87286C45.9188 2.92547 48.3067 0.537524 51.2541 0.533875H54.4575C57.4049 0.537524 59.7928 2.92547 59.7965 5.87286V61.3983C59.7965 61.988 59.3184 62.4661 58.7287 62.4661Z" fill="#C3C3C3"/>
<path d="M6.40665 22.9576H44.8473C47.2061 22.9576 49.1185 24.8701 49.1185 27.2288V37.9068H2.13547V27.2288C2.13547 24.8701 4.04791 22.9576 6.40665 22.9576Z" fill="#D9C2A0"/>
<path d="M2.13547 35.7712H49.1185V38.9746H2.13547V35.7712Z" fill="#C1AC8E"/>
<path d="M51.2542 48.5848H0V40.0424C0 38.863 0.95622 37.9068 2.13559 37.9068H49.1186C50.298 37.9068 51.2542 38.863 51.2542 40.0424V48.5848Z" fill="#5D62B5"/>
<path d="M10.678 29.3644H19.2203C21.5791 29.3644 23.4915 31.2769 23.4915 33.6356C23.4915 35.9944 21.5791 37.9068 19.2203 37.9068H10.678C8.31921 37.9068 6.40677 35.9944 6.40677 33.6356C6.40677 31.2769 8.31921 29.3644 10.678 29.3644Z" fill="#50559F"/>
<path d="M32.0337 29.3644H40.5761C42.9348 29.3644 44.8473 31.2769 44.8473 33.6356C44.8473 35.9944 42.9348 37.9068 40.5761 37.9068H32.0337C29.675 37.9068 27.7625 35.9944 27.7625 33.6356C27.7625 31.2769 29.675 29.3644 32.0337 29.3644Z" fill="#50559F"/>
<path d="M44.8474 5.87292H49.1186V10.1441H44.8474V5.87292Z" fill="#DBDBDB"/>
<path d="M61.9323 62.4661H55.5256C54.9359 62.4661 54.4578 61.988 54.4578 61.3983C54.4578 60.8086 54.9359 60.3305 55.5256 60.3305H61.9323C62.522 60.3305 63.0001 60.8086 63.0001 61.3983C63.0001 61.988 62.522 62.4661 61.9323 62.4661Z" fill="#B9B9B9"/>
<path d="M19.2203 29.3644H10.678C8.31921 29.3644 6.40677 31.2769 6.40677 33.6356H23.4915C23.4915 31.2769 21.5791 29.3644 19.2203 29.3644Z" fill="#5D62B5"/>
<path d="M40.5761 29.3644H32.0337C29.675 29.3644 27.7625 31.2769 27.7625 33.6356H44.8473C44.8473 31.2769 42.9348 29.3644 40.5761 29.3644Z" fill="#5D62B5"/>
</g>
<defs>
<clipPath id="clip0">
<rect width="63" height="63" fill="white"/>
</clipPath>
</defs>
</svg>
