<svg width="237" height="240" viewBox="0 0 237 240" fill="none" xmlns="http://www.w3.org/2000/svg">
<path d="M58.522 111.41C58.522 110.933 58.3519 110.562 58.0117 110.296C57.6777 110.03 57.0871 109.755 56.2397 109.471C55.3924 109.186 54.6997 108.911 54.1616 108.645C52.4113 107.785 51.5361 106.604 51.5361 105.101C51.5361 104.353 51.7526 103.694 52.1855 103.125C52.6247 102.55 53.2432 102.104 54.041 101.789C54.8389 101.467 55.7357 101.307 56.7314 101.307C57.7025 101.307 58.5715 101.48 59.3384 101.826C60.1115 102.173 60.7114 102.667 61.1382 103.311C61.5649 103.948 61.7783 104.677 61.7783 105.5H58.5312C58.5312 104.95 58.3612 104.523 58.021 104.22C57.687 103.917 57.2324 103.765 56.6572 103.765C56.0758 103.765 55.6151 103.895 55.2749 104.155C54.9409 104.408 54.7739 104.733 54.7739 105.129C54.7739 105.475 54.9595 105.791 55.3306 106.075C55.7017 106.354 56.3542 106.644 57.2881 106.947C58.222 107.244 58.9889 107.566 59.5889 107.912C61.0485 108.753 61.7783 109.913 61.7783 111.391C61.7783 112.572 61.333 113.5 60.4424 114.174C59.5518 114.848 58.3302 115.186 56.7778 115.186C55.6831 115.186 54.6904 114.991 53.7998 114.601C52.9154 114.205 52.2474 113.667 51.7959 112.987C51.3506 112.3 51.1279 111.512 51.1279 110.621H54.3936C54.3936 111.345 54.5791 111.88 54.9502 112.226C55.3275 112.566 55.9367 112.736 56.7778 112.736C57.3159 112.736 57.7396 112.622 58.0488 112.393C58.3643 112.158 58.522 111.83 58.522 111.41ZM66.3613 106.038C67.0293 105.197 67.8828 104.776 68.9219 104.776C70.029 104.776 70.8639 105.104 71.4268 105.76C71.9896 106.415 72.2772 107.383 72.2896 108.664V115H69.1538V108.738C69.1538 108.206 69.0456 107.816 68.8291 107.569C68.6126 107.315 68.2446 107.188 67.7251 107.188C67.0819 107.188 66.6273 107.393 66.3613 107.801V115H63.2349V100.75H66.3613V106.038ZM73.6348 109.888C73.6348 108.886 73.8296 107.996 74.2192 107.216C74.6089 106.431 75.1686 105.828 75.8984 105.407C76.6283 104.987 77.4849 104.776 78.4683 104.776C79.9712 104.776 81.1556 105.243 82.0215 106.177C82.8874 107.105 83.3203 108.37 83.3203 109.972V110.083C83.3203 111.648 82.8843 112.891 82.0122 113.812C81.1463 114.728 79.9712 115.186 78.4868 115.186C77.0581 115.186 75.9108 114.759 75.0449 113.905C74.179 113.046 73.7121 111.883 73.644 110.417L73.6348 109.888ZM76.7612 110.083C76.7612 111.011 76.9066 111.691 77.1973 112.124C77.488 112.557 77.9178 112.773 78.4868 112.773C79.6001 112.773 80.1691 111.917 80.1938 110.204V109.888C80.1938 108.088 79.6187 107.188 78.4683 107.188C77.423 107.188 76.8571 107.965 76.7705 109.517L76.7612 110.083ZM94.0171 110.055C94.0171 111.614 93.6646 112.86 92.9595 113.794C92.2606 114.722 91.3143 115.186 90.1206 115.186C89.1991 115.186 88.4414 114.848 87.8477 114.174V118.859H84.7212V104.962H87.6436L87.7363 105.89C88.3363 105.147 89.1248 104.776 90.1021 104.776C91.339 104.776 92.3008 105.234 92.9873 106.149C93.6738 107.059 94.0171 108.311 94.0171 109.907V110.055ZM90.8906 109.86C90.8906 108.079 90.3711 107.188 89.332 107.188C88.5898 107.188 88.0951 107.454 87.8477 107.986V111.938C88.1198 112.495 88.6208 112.773 89.3506 112.773C90.3464 112.773 90.8597 111.914 90.8906 110.194V109.86ZM111.718 108.524C111.718 109.842 111.474 111.008 110.985 112.022C110.497 113.036 109.801 113.819 108.898 114.369C108.001 114.913 106.978 115.186 105.827 115.186C104.677 115.186 103.656 114.923 102.766 114.397C101.875 113.865 101.179 113.107 100.678 112.124C100.183 111.141 99.9237 110.012 99.8989 108.738V107.977C99.8989 106.653 100.14 105.488 100.623 104.479C101.111 103.465 101.807 102.683 102.71 102.132C103.619 101.582 104.652 101.307 105.809 101.307C106.953 101.307 107.973 101.579 108.87 102.123C109.767 102.667 110.463 103.444 110.958 104.452C111.458 105.454 111.712 106.604 111.718 107.903V108.524ZM108.406 107.958C108.406 106.616 108.181 105.599 107.729 104.906C107.284 104.207 106.644 103.858 105.809 103.858C104.176 103.858 103.313 105.083 103.22 107.532L103.211 108.524C103.211 109.848 103.431 110.865 103.87 111.577C104.309 112.288 104.961 112.644 105.827 112.644C106.65 112.644 107.284 112.294 107.729 111.595C108.174 110.896 108.4 109.891 108.406 108.58V107.958ZM119.233 113.915C118.571 114.762 117.677 115.186 116.552 115.186C115.451 115.186 114.616 114.867 114.047 114.23C113.484 113.587 113.203 112.665 113.203 111.465V104.962H116.329V111.484C116.329 112.344 116.747 112.773 117.582 112.773C118.299 112.773 118.809 112.517 119.112 112.003V104.962H122.257V115H119.326L119.233 113.915ZM130.05 107.792L129.021 107.717C128.037 107.717 127.406 108.027 127.128 108.645V115H124.001V104.962H126.933L127.035 106.251C127.561 105.268 128.294 104.776 129.234 104.776C129.568 104.776 129.859 104.813 130.106 104.888L130.05 107.792ZM143.02 111.41C143.02 110.933 142.85 110.562 142.51 110.296C142.176 110.03 141.585 109.755 140.738 109.471C139.89 109.186 139.198 108.911 138.66 108.645C136.909 107.785 136.034 106.604 136.034 105.101C136.034 104.353 136.251 103.694 136.684 103.125C137.123 102.55 137.741 102.104 138.539 101.789C139.337 101.467 140.234 101.307 141.229 101.307C142.201 101.307 143.069 101.48 143.836 101.826C144.61 102.173 145.209 102.667 145.636 103.311C146.063 103.948 146.276 104.677 146.276 105.5H143.029C143.029 104.95 142.859 104.523 142.519 104.22C142.185 103.917 141.73 103.765 141.155 103.765C140.574 103.765 140.113 103.895 139.773 104.155C139.439 104.408 139.272 104.733 139.272 105.129C139.272 105.475 139.458 105.791 139.829 106.075C140.2 106.354 140.852 106.644 141.786 106.947C142.72 107.244 143.487 107.566 144.087 107.912C145.547 108.753 146.276 109.913 146.276 111.391C146.276 112.572 145.831 113.5 144.94 114.174C144.05 114.848 142.828 115.186 141.276 115.186C140.181 115.186 139.188 114.991 138.298 114.601C137.413 114.205 136.745 113.667 136.294 112.987C135.849 112.3 135.626 111.512 135.626 110.621H138.892C138.892 111.345 139.077 111.88 139.448 112.226C139.826 112.566 140.435 112.736 141.276 112.736C141.814 112.736 142.238 112.622 142.547 112.393C142.862 112.158 143.02 111.83 143.02 111.41ZM151.444 102.466V104.962H153.095V107.133H151.444V111.725C151.444 112.102 151.512 112.365 151.648 112.514C151.784 112.662 152.053 112.736 152.455 112.736C152.764 112.736 153.024 112.718 153.234 112.681V114.917C152.672 115.096 152.084 115.186 151.472 115.186C150.396 115.186 149.601 114.932 149.087 114.425C148.574 113.918 148.317 113.148 148.317 112.115V107.133H147.037V104.962H148.317V102.466H151.444ZM153.661 109.888C153.661 108.886 153.856 107.996 154.246 107.216C154.635 106.431 155.195 105.828 155.925 105.407C156.655 104.987 157.511 104.776 158.495 104.776C159.998 104.776 161.182 105.243 162.048 106.177C162.914 107.105 163.347 108.37 163.347 109.972V110.083C163.347 111.648 162.911 112.891 162.039 113.812C161.173 114.728 159.998 115.186 158.513 115.186C157.084 115.186 155.937 114.759 155.071 113.905C154.205 113.046 153.738 111.883 153.67 110.417L153.661 109.888ZM156.788 110.083C156.788 111.011 156.933 111.691 157.224 112.124C157.514 112.557 157.944 112.773 158.513 112.773C159.626 112.773 160.195 111.917 160.22 110.204V109.888C160.22 108.088 159.645 107.188 158.495 107.188C157.449 107.188 156.883 107.965 156.797 109.517L156.788 110.083ZM170.796 107.792L169.767 107.717C168.783 107.717 168.152 108.027 167.874 108.645V115H164.748V104.962H167.679L167.781 106.251C168.307 105.268 169.04 104.776 169.98 104.776C170.314 104.776 170.605 104.813 170.852 104.888L170.796 107.792ZM176.595 115.186C175.055 115.186 173.808 114.728 172.856 113.812C171.903 112.891 171.427 111.694 171.427 110.222V109.962C171.427 108.936 171.616 108.03 171.993 107.244C172.377 106.459 172.933 105.853 173.663 105.426C174.393 104.993 175.259 104.776 176.261 104.776C177.671 104.776 178.784 105.215 179.601 106.094C180.417 106.966 180.825 108.184 180.825 109.749V110.964H174.609C174.721 111.527 174.965 111.969 175.342 112.291C175.72 112.613 176.208 112.773 176.808 112.773C177.798 112.773 178.571 112.427 179.127 111.734L180.556 113.423C180.167 113.961 179.613 114.391 178.896 114.712C178.184 115.028 177.417 115.186 176.595 115.186ZM176.242 107.188C175.327 107.188 174.783 107.795 174.609 109.007H177.764V108.766C177.776 108.265 177.649 107.878 177.383 107.606C177.117 107.328 176.737 107.188 176.242 107.188ZM185.195 110.723H182.662L182.263 101.492H185.594L185.195 110.723ZM182.17 113.599C182.17 113.141 182.334 112.767 182.662 112.477C182.996 112.18 183.41 112.031 183.905 112.031C184.4 112.031 184.811 112.18 185.139 112.477C185.473 112.767 185.64 113.141 185.64 113.599C185.64 114.057 185.473 114.434 185.139 114.731C184.811 115.022 184.4 115.167 183.905 115.167C183.41 115.167 182.996 115.022 182.662 114.731C182.334 114.434 182.17 114.057 182.17 113.599Z" fill="#F2726F"/>
<path d="M22.3109 156.031H17.5453L16.475 159H14.9281L19.2719 147.625H20.5844L24.9359 159H23.3969L22.3109 156.031ZM17.9984 154.797H21.8656L19.9281 149.477L17.9984 154.797ZM28.2109 148.5V150.547H29.7891V151.664H28.2109V156.906C28.2109 157.245 28.2812 157.5 28.4219 157.672C28.5625 157.839 28.8021 157.922 29.1406 157.922C29.3073 157.922 29.5365 157.891 29.8281 157.828V159C29.4479 159.104 29.0781 159.156 28.7187 159.156C28.0729 159.156 27.5859 158.961 27.2578 158.57C26.9297 158.18 26.7656 157.625 26.7656 156.906V151.664H25.2266V150.547H26.7656V148.5H28.2109ZM38.5422 157.039L40.6359 150.547H42.1125L39.0812 159H37.9797L34.9172 150.547H36.3937L38.5422 157.039ZM47.0516 159.156C45.9057 159.156 44.9734 158.781 44.2547 158.031C43.5359 157.276 43.1766 156.268 43.1766 155.008V154.742C43.1766 153.904 43.3354 153.156 43.6531 152.5C43.976 151.839 44.424 151.323 44.9969 150.953C45.575 150.578 46.2 150.391 46.8719 150.391C47.9708 150.391 48.825 150.753 49.4344 151.477C50.0437 152.201 50.3484 153.237 50.3484 154.586V155.188H44.6219C44.6427 156.021 44.8849 156.695 45.3484 157.211C45.8172 157.721 46.4109 157.977 47.1297 157.977C47.6401 157.977 48.0724 157.872 48.4266 157.664C48.7807 157.456 49.0906 157.18 49.3562 156.836L50.2391 157.523C49.5307 158.612 48.4682 159.156 47.0516 159.156ZM46.8719 151.578C46.2885 151.578 45.799 151.792 45.4031 152.219C45.0073 152.641 44.7625 153.234 44.6687 154H48.9031V153.891C48.8615 153.156 48.6635 152.589 48.3094 152.188C47.9552 151.781 47.476 151.578 46.8719 151.578ZM56.2641 151.844C56.0453 151.807 55.8083 151.789 55.5531 151.789C54.6052 151.789 53.962 152.193 53.6234 153V159H52.1781V150.547H53.5844L53.6078 151.523C54.0818 150.768 54.7536 150.391 55.6234 150.391C55.9047 150.391 56.1182 150.427 56.2641 150.5V151.844ZM57.2109 154.695C57.2109 153.867 57.3724 153.122 57.6953 152.461C58.0234 151.799 58.4766 151.289 59.0547 150.93C59.638 150.57 60.3021 150.391 61.0469 150.391C62.1979 150.391 63.1276 150.789 63.8359 151.586C64.5495 152.383 64.9062 153.443 64.9062 154.766V154.867C64.9062 155.69 64.7474 156.43 64.4297 157.086C64.1172 157.737 63.6667 158.245 63.0781 158.609C62.4948 158.974 61.8229 159.156 61.0625 159.156C59.9167 159.156 58.987 158.758 58.2734 157.961C57.5651 157.164 57.2109 156.109 57.2109 154.797V154.695ZM58.6641 154.867C58.6641 155.805 58.8802 156.557 59.3125 157.125C59.75 157.693 60.3333 157.977 61.0625 157.977C61.7969 157.977 62.3802 157.69 62.8125 157.117C63.2448 156.539 63.4609 155.732 63.4609 154.695C63.4609 153.768 63.2396 153.018 62.7969 152.445C62.3594 151.867 61.776 151.578 61.0469 151.578C60.3333 151.578 59.7578 151.862 59.3203 152.43C58.8828 152.997 58.6641 153.81 58.6641 154.867ZM74.4953 159.156C73.3495 159.156 72.4172 158.781 71.6984 158.031C70.9797 157.276 70.6203 156.268 70.6203 155.008V154.742C70.6203 153.904 70.7792 153.156 71.0969 152.5C71.4198 151.839 71.8677 151.323 72.4406 150.953C73.0188 150.578 73.6438 150.391 74.3156 150.391C75.4146 150.391 76.2688 150.753 76.8781 151.477C77.4875 152.201 77.7922 153.237 77.7922 154.586V155.188H72.0656C72.0865 156.021 72.3286 156.695 72.7922 157.211C73.2609 157.721 73.8547 157.977 74.5734 157.977C75.0839 157.977 75.5161 157.872 75.8703 157.664C76.2245 157.456 76.5344 157.18 76.8 156.836L77.6828 157.523C76.9745 158.612 75.912 159.156 74.4953 159.156ZM74.3156 151.578C73.7323 151.578 73.2427 151.792 72.8469 152.219C72.451 152.641 72.2063 153.234 72.1125 154H76.3469V153.891C76.3052 153.156 76.1073 152.589 75.7531 152.188C75.399 151.781 74.9198 151.578 74.3156 151.578ZM79.2391 154.695C79.2391 153.867 79.4005 153.122 79.7234 152.461C80.0516 151.799 80.5047 151.289 81.0828 150.93C81.6661 150.57 82.3302 150.391 83.075 150.391C84.226 150.391 85.1557 150.789 85.8641 151.586C86.5776 152.383 86.9344 153.443 86.9344 154.766V154.867C86.9344 155.69 86.7755 156.43 86.4578 157.086C86.1453 157.737 85.6948 158.245 85.1062 158.609C84.5229 158.974 83.851 159.156 83.0906 159.156C81.9448 159.156 81.0151 158.758 80.3016 157.961C79.5932 157.164 79.2391 156.109 79.2391 154.797V154.695ZM80.6922 154.867C80.6922 155.805 80.9083 156.557 81.3406 157.125C81.7781 157.693 82.3615 157.977 83.0906 157.977C83.825 157.977 84.4083 157.69 84.8406 157.117C85.2729 156.539 85.4891 155.732 85.4891 154.695C85.4891 153.768 85.2677 153.018 84.825 152.445C84.3875 151.867 83.8042 151.578 83.075 151.578C82.3615 151.578 81.7859 151.862 81.3484 152.43C80.9109 152.997 80.6922 153.81 80.6922 154.867ZM93.8187 156.758C93.8187 156.367 93.6703 156.065 93.3734 155.852C93.0818 155.633 92.5687 155.445 91.8344 155.289C91.1052 155.133 90.5245 154.945 90.0922 154.727C89.6651 154.508 89.3474 154.247 89.1391 153.945C88.9359 153.643 88.8344 153.284 88.8344 152.867C88.8344 152.174 89.126 151.589 89.7094 151.109C90.2979 150.63 91.0479 150.391 91.9594 150.391C92.9177 150.391 93.6937 150.638 94.2875 151.133C94.8865 151.628 95.1859 152.26 95.1859 153.031H93.7328C93.7328 152.635 93.5635 152.294 93.225 152.008C92.8917 151.721 92.4698 151.578 91.9594 151.578C91.4333 151.578 91.0219 151.693 90.725 151.922C90.4281 152.151 90.2797 152.451 90.2797 152.82C90.2797 153.169 90.4177 153.432 90.6937 153.609C90.9698 153.786 91.4672 153.956 92.1859 154.117C92.9099 154.279 93.4958 154.471 93.9437 154.695C94.3917 154.919 94.7224 155.19 94.9359 155.508C95.1547 155.82 95.2641 156.203 95.2641 156.656C95.2641 157.411 94.962 158.018 94.3578 158.477C93.7536 158.93 92.9698 159.156 92.0062 159.156C91.3292 159.156 90.7302 159.036 90.2094 158.797C89.6885 158.557 89.2797 158.224 88.9828 157.797C88.6911 157.365 88.5453 156.898 88.5453 156.398H89.9906C90.0167 156.883 90.2094 157.268 90.5687 157.555C90.9333 157.836 91.4125 157.977 92.0062 157.977C92.5531 157.977 92.9906 157.867 93.3187 157.648C93.6521 157.424 93.8187 157.128 93.8187 156.758ZM104.923 159.156C103.778 159.156 102.845 158.781 102.127 158.031C101.408 157.276 101.048 156.268 101.048 155.008V154.742C101.048 153.904 101.207 153.156 101.525 152.5C101.848 151.839 102.296 151.323 102.869 150.953C103.447 150.578 104.072 150.391 104.744 150.391C105.843 150.391 106.697 150.753 107.306 151.477C107.916 152.201 108.22 153.237 108.22 154.586V155.188H102.494C102.515 156.021 102.757 156.695 103.22 157.211C103.689 157.721 104.283 157.977 105.002 157.977C105.512 157.977 105.944 157.872 106.298 157.664C106.653 157.456 106.963 157.18 107.228 156.836L108.111 157.523C107.403 158.612 106.34 159.156 104.923 159.156ZM104.744 151.578C104.16 151.578 103.671 151.792 103.275 152.219C102.879 152.641 102.634 153.234 102.541 154H106.775V153.891C106.733 153.156 106.535 152.589 106.181 152.188C105.827 151.781 105.348 151.578 104.744 151.578ZM112.011 148.5V150.547H113.589V151.664H112.011V156.906C112.011 157.245 112.081 157.5 112.222 157.672C112.362 157.839 112.602 157.922 112.941 157.922C113.107 157.922 113.336 157.891 113.628 157.828V159C113.248 159.104 112.878 159.156 112.519 159.156C111.873 159.156 111.386 158.961 111.058 158.57C110.73 158.18 110.566 157.625 110.566 156.906V151.664H109.027V150.547H110.566V148.5H112.011ZM124.772 159C124.689 158.833 124.621 158.536 124.569 158.109C123.897 158.807 123.095 159.156 122.162 159.156C121.329 159.156 120.644 158.922 120.108 158.453C119.577 157.979 119.311 157.38 119.311 156.656C119.311 155.776 119.644 155.094 120.311 154.609C120.983 154.12 121.926 153.875 123.139 153.875H124.545V153.211C124.545 152.706 124.394 152.305 124.092 152.008C123.79 151.706 123.345 151.555 122.756 151.555C122.241 151.555 121.808 151.685 121.459 151.945C121.11 152.206 120.936 152.521 120.936 152.891H119.483C119.483 152.469 119.631 152.062 119.928 151.672C120.23 151.276 120.636 150.964 121.147 150.734C121.662 150.505 122.228 150.391 122.842 150.391C123.816 150.391 124.579 150.635 125.131 151.125C125.683 151.609 125.97 152.279 125.991 153.133V157.023C125.991 157.799 126.09 158.417 126.287 158.875V159H124.772ZM122.373 157.898C122.827 157.898 123.256 157.781 123.662 157.547C124.069 157.312 124.363 157.008 124.545 156.633V154.898H123.412C121.642 154.898 120.756 155.417 120.756 156.453C120.756 156.906 120.907 157.26 121.209 157.516C121.511 157.771 121.899 157.898 122.373 157.898ZM131.797 157.977C132.312 157.977 132.763 157.82 133.148 157.508C133.534 157.195 133.747 156.805 133.789 156.336H135.156C135.13 156.82 134.964 157.281 134.656 157.719C134.349 158.156 133.938 158.505 133.422 158.766C132.911 159.026 132.37 159.156 131.797 159.156C130.646 159.156 129.729 158.773 129.047 158.008C128.37 157.237 128.031 156.185 128.031 154.852V154.609C128.031 153.786 128.182 153.055 128.484 152.414C128.786 151.773 129.219 151.276 129.781 150.922C130.349 150.568 131.018 150.391 131.789 150.391C132.737 150.391 133.523 150.674 134.148 151.242C134.779 151.81 135.115 152.547 135.156 153.453H133.789C133.747 152.906 133.539 152.458 133.164 152.109C132.794 151.755 132.336 151.578 131.789 151.578C131.055 151.578 130.484 151.844 130.078 152.375C129.677 152.901 129.477 153.664 129.477 154.664V154.938C129.477 155.911 129.677 156.661 130.078 157.188C130.479 157.714 131.052 157.977 131.797 157.977ZM140.322 157.977C140.837 157.977 141.288 157.82 141.673 157.508C142.059 157.195 142.272 156.805 142.314 156.336H143.681C143.655 156.82 143.489 157.281 143.181 157.719C142.874 158.156 142.462 158.505 141.947 158.766C141.436 159.026 140.895 159.156 140.322 159.156C139.171 159.156 138.254 158.773 137.572 158.008C136.895 157.237 136.556 156.185 136.556 154.852V154.609C136.556 153.786 136.707 153.055 137.009 152.414C137.311 151.773 137.744 151.276 138.306 150.922C138.874 150.568 139.543 150.391 140.314 150.391C141.262 150.391 142.048 150.674 142.673 151.242C143.304 151.81 143.64 152.547 143.681 153.453H142.314C142.272 152.906 142.064 152.458 141.689 152.109C141.319 151.755 140.861 151.578 140.314 151.578C139.58 151.578 139.009 151.844 138.603 152.375C138.202 152.901 138.002 153.664 138.002 154.664V154.938C138.002 155.911 138.202 156.661 138.603 157.188C139.004 157.714 139.577 157.977 140.322 157.977ZM150.675 158.164C150.112 158.826 149.287 159.156 148.198 159.156C147.297 159.156 146.61 158.896 146.136 158.375C145.667 157.849 145.43 157.073 145.425 156.047V150.547H146.87V156.008C146.87 157.289 147.391 157.93 148.433 157.93C149.537 157.93 150.271 157.518 150.636 156.695V150.547H152.081V159H150.706L150.675 158.164ZM159.356 156.758C159.356 156.367 159.208 156.065 158.911 155.852C158.619 155.633 158.106 155.445 157.372 155.289C156.643 155.133 156.062 154.945 155.63 154.727C155.203 154.508 154.885 154.247 154.677 153.945C154.473 153.643 154.372 153.284 154.372 152.867C154.372 152.174 154.664 151.589 155.247 151.109C155.835 150.63 156.585 150.391 157.497 150.391C158.455 150.391 159.231 150.638 159.825 151.133C160.424 151.628 160.723 152.26 160.723 153.031H159.27C159.27 152.635 159.101 152.294 158.763 152.008C158.429 151.721 158.007 151.578 157.497 151.578C156.971 151.578 156.559 151.693 156.263 151.922C155.966 152.151 155.817 152.451 155.817 152.82C155.817 153.169 155.955 153.432 156.231 153.609C156.507 153.786 157.005 153.956 157.723 154.117C158.447 154.279 159.033 154.471 159.481 154.695C159.929 154.919 160.26 155.19 160.473 155.508C160.692 155.82 160.802 156.203 160.802 156.656C160.802 157.411 160.499 158.018 159.895 158.477C159.291 158.93 158.507 159.156 157.544 159.156C156.867 159.156 156.268 159.036 155.747 158.797C155.226 158.557 154.817 158.224 154.52 157.797C154.229 157.365 154.083 156.898 154.083 156.398H155.528C155.554 156.883 155.747 157.268 156.106 157.555C156.471 157.836 156.95 157.977 157.544 157.977C158.091 157.977 158.528 157.867 158.856 157.648C159.19 157.424 159.356 157.128 159.356 156.758ZM168.053 159C167.97 158.833 167.902 158.536 167.85 158.109C167.178 158.807 166.376 159.156 165.444 159.156C164.61 159.156 163.926 158.922 163.389 158.453C162.858 157.979 162.592 157.38 162.592 156.656C162.592 155.776 162.926 155.094 163.592 154.609C164.264 154.12 165.207 153.875 166.42 153.875H167.827V153.211C167.827 152.706 167.676 152.305 167.373 152.008C167.071 151.706 166.626 151.555 166.038 151.555C165.522 151.555 165.09 151.685 164.741 151.945C164.392 152.206 164.217 152.521 164.217 152.891H162.764C162.764 152.469 162.913 152.062 163.209 151.672C163.511 151.276 163.918 150.964 164.428 150.734C164.944 150.505 165.509 150.391 166.123 150.391C167.097 150.391 167.86 150.635 168.413 151.125C168.965 151.609 169.251 152.279 169.272 153.133V157.023C169.272 157.799 169.371 158.417 169.569 158.875V159H168.053ZM165.655 157.898C166.108 157.898 166.538 157.781 166.944 157.547C167.35 157.312 167.644 157.008 167.827 156.633V154.898H166.694C164.923 154.898 164.038 155.417 164.038 156.453C164.038 156.906 164.189 157.26 164.491 157.516C164.793 157.771 165.181 157.898 165.655 157.898ZM173.047 150.547L173.086 151.484C173.706 150.755 174.542 150.391 175.594 150.391C176.776 150.391 177.581 150.844 178.008 151.75C178.289 151.344 178.654 151.016 179.102 150.766C179.555 150.516 180.089 150.391 180.703 150.391C182.557 150.391 183.5 151.372 183.531 153.336V159H182.086V153.422C182.086 152.818 181.948 152.367 181.672 152.07C181.396 151.768 180.932 151.617 180.281 151.617C179.745 151.617 179.299 151.779 178.945 152.102C178.591 152.419 178.385 152.849 178.328 153.391V159H176.875V153.461C176.875 152.232 176.273 151.617 175.07 151.617C174.122 151.617 173.474 152.021 173.125 152.828V159H171.68V150.547H173.047ZM191.087 158.164C190.525 158.826 189.699 159.156 188.611 159.156C187.71 159.156 187.022 158.896 186.548 158.375C186.08 157.849 185.843 157.073 185.837 156.047V150.547H187.283V156.008C187.283 157.289 187.804 157.93 188.845 157.93C189.949 157.93 190.684 157.518 191.048 156.695V150.547H192.494V159H191.119L191.087 158.164ZM199.769 156.758C199.769 156.367 199.62 156.065 199.323 155.852C199.032 155.633 198.519 155.445 197.784 155.289C197.055 155.133 196.474 154.945 196.042 154.727C195.615 154.508 195.297 154.247 195.089 153.945C194.886 153.643 194.784 153.284 194.784 152.867C194.784 152.174 195.076 151.589 195.659 151.109C196.248 150.63 196.998 150.391 197.909 150.391C198.868 150.391 199.644 150.638 200.237 151.133C200.836 151.628 201.136 152.26 201.136 153.031H199.683C199.683 152.635 199.514 152.294 199.175 152.008C198.842 151.721 198.42 151.578 197.909 151.578C197.383 151.578 196.972 151.693 196.675 151.922C196.378 152.151 196.23 152.451 196.23 152.82C196.23 153.169 196.368 153.432 196.644 153.609C196.92 153.786 197.417 153.956 198.136 154.117C198.86 154.279 199.446 154.471 199.894 154.695C200.342 154.919 200.672 155.19 200.886 155.508C201.105 155.82 201.214 156.203 201.214 156.656C201.214 157.411 200.912 158.018 200.308 158.477C199.704 158.93 198.92 159.156 197.956 159.156C197.279 159.156 196.68 159.036 196.159 158.797C195.639 158.557 195.23 158.224 194.933 157.797C194.641 157.365 194.495 156.898 194.495 156.398H195.941C195.967 156.883 196.159 157.268 196.519 157.555C196.883 157.836 197.362 157.977 197.956 157.977C198.503 157.977 198.941 157.867 199.269 157.648C199.602 157.424 199.769 157.128 199.769 156.758ZM210.873 159.156C209.728 159.156 208.795 158.781 208.077 158.031C207.358 157.276 206.998 156.268 206.998 155.008V154.742C206.998 153.904 207.157 153.156 207.475 152.5C207.798 151.839 208.246 151.323 208.819 150.953C209.397 150.578 210.022 150.391 210.694 150.391C211.793 150.391 212.647 150.753 213.256 151.477C213.866 152.201 214.17 153.237 214.17 154.586V155.188H208.444C208.465 156.021 208.707 156.695 209.17 157.211C209.639 157.721 210.233 157.977 210.952 157.977C211.462 157.977 211.894 157.872 212.248 157.664C212.603 157.456 212.913 157.18 213.178 156.836L214.061 157.523C213.353 158.612 212.29 159.156 210.873 159.156ZM210.694 151.578C210.11 151.578 209.621 151.792 209.225 152.219C208.829 152.641 208.584 153.234 208.491 154H212.725V153.891C212.683 153.156 212.485 152.589 212.131 152.188C211.777 151.781 211.298 151.578 210.694 151.578ZM217.961 148.5V150.547H219.539V151.664H217.961V156.906C217.961 157.245 218.031 157.5 218.172 157.672C218.312 157.839 218.552 157.922 218.891 157.922C219.057 157.922 219.286 157.891 219.578 157.828V159C219.198 159.104 218.828 159.156 218.469 159.156C217.823 159.156 217.336 158.961 217.008 158.57C216.68 158.18 216.516 157.625 216.516 156.906V151.664H214.977V150.547H216.516V148.5H217.961ZM4.96094 183H3.51562V174.547H4.96094V183ZM3.39844 172.305C3.39844 172.07 3.46875 171.872 3.60938 171.711C3.75521 171.549 3.96875 171.469 4.25 171.469C4.53125 171.469 4.74479 171.549 4.89062 171.711C5.03646 171.872 5.10938 172.07 5.10938 172.305C5.10938 172.539 5.03646 172.734 4.89062 172.891C4.74479 173.047 4.53125 173.125 4.25 173.125C3.96875 173.125 3.75521 173.047 3.60938 172.891C3.46875 172.734 3.39844 172.539 3.39844 172.305ZM12.65 182.164C12.0875 182.826 11.262 183.156 10.1734 183.156C9.2724 183.156 8.5849 182.896 8.11094 182.375C7.64219 181.849 7.40521 181.073 7.4 180.047V174.547H8.84531V180.008C8.84531 181.289 9.36615 181.93 10.4078 181.93C11.512 181.93 12.2464 181.518 12.6109 180.695V174.547H14.0563V183H12.6813L12.65 182.164ZM21.3313 180.758C21.3313 180.367 21.1828 180.065 20.8859 179.852C20.5943 179.633 20.0813 179.445 19.3469 179.289C18.6177 179.133 18.037 178.945 17.6047 178.727C17.1776 178.508 16.8599 178.247 16.6516 177.945C16.4484 177.643 16.3469 177.284 16.3469 176.867C16.3469 176.174 16.6385 175.589 17.2219 175.109C17.8104 174.63 18.5604 174.391 19.4719 174.391C20.4302 174.391 21.2063 174.638 21.8 175.133C22.399 175.628 22.6984 176.26 22.6984 177.031H21.2453C21.2453 176.635 21.076 176.294 20.7375 176.008C20.4042 175.721 19.9823 175.578 19.4719 175.578C18.9458 175.578 18.5344 175.693 18.2375 175.922C17.9406 176.151 17.7922 176.451 17.7922 176.82C17.7922 177.169 17.9302 177.432 18.2063 177.609C18.4823 177.786 18.9797 177.956 19.6984 178.117C20.4224 178.279 21.0083 178.471 21.4563 178.695C21.9042 178.919 22.2349 179.19 22.4484 179.508C22.6672 179.82 22.7766 180.203 22.7766 180.656C22.7766 181.411 22.4745 182.018 21.8703 182.477C21.2661 182.93 20.4823 183.156 19.5188 183.156C18.8417 183.156 18.2427 183.036 17.7219 182.797C17.201 182.557 16.7922 182.224 16.4953 181.797C16.2036 181.365 16.0578 180.898 16.0578 180.398H17.5031C17.5292 180.883 17.7219 181.268 18.0813 181.555C18.4458 181.836 18.925 181.977 19.5188 181.977C20.0656 181.977 20.5031 181.867 20.8313 181.648C21.1646 181.424 21.3313 181.128 21.3313 180.758ZM26.7703 172.5V174.547H28.3484V175.664H26.7703V180.906C26.7703 181.245 26.8406 181.5 26.9813 181.672C27.1219 181.839 27.3615 181.922 27.7 181.922C27.8667 181.922 28.0958 181.891 28.3875 181.828V183C28.0073 183.104 27.6375 183.156 27.2781 183.156C26.6323 183.156 26.1453 182.961 25.8172 182.57C25.4891 182.18 25.325 181.625 25.325 180.906V175.664H23.7859V174.547H25.325V172.5H26.7703ZM29.6547 178.695C29.6547 177.867 29.8161 177.122 30.1391 176.461C30.4672 175.799 30.9203 175.289 31.4984 174.93C32.0818 174.57 32.7458 174.391 33.4906 174.391C34.6417 174.391 35.5714 174.789 36.2797 175.586C36.9932 176.383 37.35 177.443 37.35 178.766V178.867C37.35 179.69 37.1911 180.43 36.8734 181.086C36.5609 181.737 36.1104 182.245 35.5219 182.609C34.9385 182.974 34.2667 183.156 33.5063 183.156C32.3604 183.156 31.4307 182.758 30.7172 181.961C30.0089 181.164 29.6547 180.109 29.6547 178.797V178.695ZM31.1078 178.867C31.1078 179.805 31.324 180.557 31.7563 181.125C32.1938 181.693 32.7771 181.977 33.5063 181.977C34.2406 181.977 34.824 181.69 35.2563 181.117C35.6885 180.539 35.9047 179.732 35.9047 178.695C35.9047 177.768 35.6833 177.018 35.2406 176.445C34.8031 175.867 34.2198 175.578 33.4906 175.578C32.7771 175.578 32.2016 175.862 31.7641 176.43C31.3266 176.997 31.1078 177.81 31.1078 178.867ZM43.0484 178.695C43.0484 177.867 43.2099 177.122 43.5328 176.461C43.8609 175.799 44.3141 175.289 44.8922 174.93C45.4755 174.57 46.1396 174.391 46.8844 174.391C48.0354 174.391 48.9651 174.789 49.6734 175.586C50.387 176.383 50.7438 177.443 50.7438 178.766V178.867C50.7438 179.69 50.5849 180.43 50.2672 181.086C49.9547 181.737 49.5042 182.245 48.9156 182.609C48.3323 182.974 47.6604 183.156 46.9 183.156C45.7542 183.156 44.8245 182.758 44.1109 181.961C43.4026 181.164 43.0484 180.109 43.0484 178.797V178.695ZM44.5016 178.867C44.5016 179.805 44.7177 180.557 45.15 181.125C45.5875 181.693 46.1708 181.977 46.9 181.977C47.6344 181.977 48.2177 181.69 48.65 181.117C49.0823 180.539 49.2984 179.732 49.2984 178.695C49.2984 177.768 49.0771 177.018 48.6344 176.445C48.1969 175.867 47.6135 175.578 46.8844 175.578C46.1708 175.578 45.5953 175.862 45.1578 176.43C44.7203 176.997 44.5016 177.81 44.5016 178.867ZM52.3547 178.703C52.3547 177.406 52.662 176.365 53.2766 175.578C53.8911 174.786 54.6958 174.391 55.6906 174.391C56.6802 174.391 57.4641 174.729 58.0422 175.406V171H59.4875V183H58.1594L58.0891 182.094C57.5109 182.802 56.7062 183.156 55.675 183.156C54.6958 183.156 53.8964 182.755 53.2766 181.953C52.662 181.151 52.3547 180.104 52.3547 178.812V178.703ZM53.8 178.867C53.8 179.826 53.9979 180.576 54.3937 181.117C54.7896 181.659 55.3365 181.93 56.0344 181.93C56.951 181.93 57.6203 181.518 58.0422 180.695V176.812C57.6099 176.016 56.9458 175.617 56.05 175.617C55.3417 175.617 54.7896 175.891 54.3937 176.438C53.9979 176.984 53.8 177.794 53.8 178.867ZM63.4578 183H62.0125V174.547H63.4578V183ZM61.8953 172.305C61.8953 172.07 61.9656 171.872 62.1063 171.711C62.2521 171.549 62.4656 171.469 62.7469 171.469C63.0281 171.469 63.2417 171.549 63.3875 171.711C63.5333 171.872 63.6063 172.07 63.6063 172.305C63.6063 172.539 63.5333 172.734 63.3875 172.891C63.2417 173.047 63.0281 173.125 62.7469 173.125C62.4656 173.125 62.2521 173.047 62.1063 172.891C61.9656 172.734 61.8953 172.539 61.8953 172.305ZM65.5453 178.695C65.5453 177.867 65.7068 177.122 66.0297 176.461C66.3578 175.799 66.8109 175.289 67.3891 174.93C67.9724 174.57 68.6365 174.391 69.3812 174.391C70.5323 174.391 71.462 174.789 72.1703 175.586C72.8839 176.383 73.2406 177.443 73.2406 178.766V178.867C73.2406 179.69 73.0818 180.43 72.7641 181.086C72.4516 181.737 72.001 182.245 71.4125 182.609C70.8292 182.974 70.1573 183.156 69.3969 183.156C68.251 183.156 67.3214 182.758 66.6078 181.961C65.8995 181.164 65.5453 180.109 65.5453 178.797V178.695ZM66.9984 178.867C66.9984 179.805 67.2146 180.557 67.6469 181.125C68.0844 181.693 68.6677 181.977 69.3969 181.977C70.1312 181.977 70.7146 181.69 71.1469 181.117C71.5792 180.539 71.7953 179.732 71.7953 178.695C71.7953 177.768 71.574 177.018 71.1312 176.445C70.6937 175.867 70.1104 175.578 69.3812 175.578C68.6677 175.578 68.0922 175.862 67.6547 176.43C67.2172 176.997 66.9984 177.81 66.9984 178.867ZM78.9703 178.703C78.9703 177.406 79.2776 176.365 79.8922 175.578C80.5068 174.786 81.3115 174.391 82.3063 174.391C83.2958 174.391 84.0797 174.729 84.6578 175.406V171H86.1031V183H84.775L84.7047 182.094C84.1266 182.802 83.3219 183.156 82.2906 183.156C81.3115 183.156 80.512 182.755 79.8922 181.953C79.2776 181.151 78.9703 180.104 78.9703 178.812V178.703ZM80.4156 178.867C80.4156 179.826 80.6135 180.576 81.0094 181.117C81.4052 181.659 81.9521 181.93 82.65 181.93C83.5667 181.93 84.2359 181.518 84.6578 180.695V176.812C84.2255 176.016 83.5615 175.617 82.6656 175.617C81.9573 175.617 81.4052 175.891 81.0094 176.438C80.6135 176.984 80.4156 177.794 80.4156 178.867ZM90.0734 183H88.6281V174.547H90.0734V183ZM88.5109 172.305C88.5109 172.07 88.5813 171.872 88.7219 171.711C88.8677 171.549 89.0813 171.469 89.3625 171.469C89.6438 171.469 89.8573 171.549 90.0031 171.711C90.149 171.872 90.2219 172.07 90.2219 172.305C90.2219 172.539 90.149 172.734 90.0031 172.891C89.8573 173.047 89.6438 173.125 89.3625 173.125C89.0813 173.125 88.8677 173.047 88.7219 172.891C88.5813 172.734 88.5109 172.539 88.5109 172.305ZM92.2 178.703C92.2 177.385 92.5047 176.339 93.1141 175.562C93.7234 174.781 94.5307 174.391 95.5359 174.391C96.5672 174.391 97.3719 174.755 97.95 175.484L98.0203 174.547H99.3406V182.797C99.3406 183.891 99.0151 184.753 98.3641 185.383C97.7182 186.013 96.8484 186.328 95.7547 186.328C95.1453 186.328 94.549 186.198 93.9656 185.938C93.3823 185.677 92.937 185.32 92.6297 184.867L93.3797 184C93.9995 184.766 94.7573 185.148 95.6531 185.148C96.3562 185.148 96.9031 184.951 97.2937 184.555C97.6896 184.159 97.8875 183.602 97.8875 182.883V182.156C97.3094 182.823 96.5203 183.156 95.5203 183.156C94.5307 183.156 93.7286 182.758 93.1141 181.961C92.5047 181.164 92.2 180.078 92.2 178.703ZM93.6531 178.867C93.6531 179.82 93.8484 180.57 94.2391 181.117C94.6297 181.659 95.1766 181.93 95.8797 181.93C96.7911 181.93 97.4604 181.516 97.8875 180.688V176.828C97.4448 176.021 96.7807 175.617 95.8953 175.617C95.1922 175.617 94.6427 175.891 94.2469 176.438C93.851 176.984 93.6531 177.794 93.6531 178.867ZM103.045 174.547L103.092 175.609C103.738 174.797 104.582 174.391 105.623 174.391C107.41 174.391 108.311 175.398 108.327 177.414V183H106.881V177.406C106.876 176.797 106.735 176.346 106.459 176.055C106.189 175.763 105.764 175.617 105.186 175.617C104.717 175.617 104.306 175.742 103.952 175.992C103.597 176.242 103.321 176.57 103.123 176.977V183H101.678V174.547H103.045ZM112.227 183H110.781V174.547H112.227V183ZM110.664 172.305C110.664 172.07 110.734 171.872 110.875 171.711C111.021 171.549 111.234 171.469 111.516 171.469C111.797 171.469 112.01 171.549 112.156 171.711C112.302 171.872 112.375 172.07 112.375 172.305C112.375 172.539 112.302 172.734 112.156 172.891C112.01 173.047 111.797 173.125 111.516 173.125C111.234 173.125 111.021 173.047 110.875 172.891C110.734 172.734 110.664 172.539 110.664 172.305ZM119.619 180.758C119.619 180.367 119.47 180.065 119.173 179.852C118.882 179.633 118.369 179.445 117.634 179.289C116.905 179.133 116.324 178.945 115.892 178.727C115.465 178.508 115.147 178.247 114.939 177.945C114.736 177.643 114.634 177.284 114.634 176.867C114.634 176.174 114.926 175.589 115.509 175.109C116.098 174.63 116.848 174.391 117.759 174.391C118.718 174.391 119.494 174.638 120.088 175.133C120.686 175.628 120.986 176.26 120.986 177.031H119.533C119.533 176.635 119.364 176.294 119.025 176.008C118.692 175.721 118.27 175.578 117.759 175.578C117.233 175.578 116.822 175.693 116.525 175.922C116.228 176.151 116.08 176.451 116.08 176.82C116.08 177.169 116.218 177.432 116.494 177.609C116.77 177.786 117.267 177.956 117.986 178.117C118.71 178.279 119.296 178.471 119.744 178.695C120.192 178.919 120.522 179.19 120.736 179.508C120.955 179.82 121.064 180.203 121.064 180.656C121.064 181.411 120.762 182.018 120.158 182.477C119.554 182.93 118.77 183.156 117.806 183.156C117.129 183.156 116.53 183.036 116.009 182.797C115.489 182.557 115.08 182.224 114.783 181.797C114.491 181.365 114.345 180.898 114.345 180.398H115.791C115.817 180.883 116.009 181.268 116.369 181.555C116.733 181.836 117.213 181.977 117.806 181.977C118.353 181.977 118.791 181.867 119.119 181.648C119.452 181.424 119.619 181.128 119.619 180.758ZM128.019 180.758C128.019 180.367 127.87 180.065 127.573 179.852C127.282 179.633 126.769 179.445 126.034 179.289C125.305 179.133 124.724 178.945 124.292 178.727C123.865 178.508 123.547 178.247 123.339 177.945C123.136 177.643 123.034 177.284 123.034 176.867C123.034 176.174 123.326 175.589 123.909 175.109C124.498 174.63 125.248 174.391 126.159 174.391C127.118 174.391 127.894 174.638 128.488 175.133C129.086 175.628 129.386 176.26 129.386 177.031H127.933C127.933 176.635 127.764 176.294 127.425 176.008C127.092 175.721 126.67 175.578 126.159 175.578C125.633 175.578 125.222 175.693 124.925 175.922C124.628 176.151 124.48 176.451 124.48 176.82C124.48 177.169 124.618 177.432 124.894 177.609C125.17 177.786 125.667 177.956 126.386 178.117C127.11 178.279 127.696 178.471 128.144 178.695C128.592 178.919 128.922 179.19 129.136 179.508C129.355 179.82 129.464 180.203 129.464 180.656C129.464 181.411 129.162 182.018 128.558 182.477C127.954 182.93 127.17 183.156 126.206 183.156C125.529 183.156 124.93 183.036 124.409 182.797C123.889 182.557 123.48 182.224 123.183 181.797C122.891 181.365 122.745 180.898 122.745 180.398H124.191C124.217 180.883 124.409 181.268 124.769 181.555C125.133 181.836 125.613 181.977 126.206 181.977C126.753 181.977 127.191 181.867 127.519 181.648C127.852 181.424 128.019 181.128 128.019 180.758ZM133.067 183H131.622V174.547H133.067V183ZM131.505 172.305C131.505 172.07 131.575 171.872 131.716 171.711C131.861 171.549 132.075 171.469 132.356 171.469C132.637 171.469 132.851 171.549 132.997 171.711C133.143 171.872 133.216 172.07 133.216 172.305C133.216 172.539 133.143 172.734 132.997 172.891C132.851 173.047 132.637 173.125 132.356 173.125C132.075 173.125 131.861 173.047 131.716 172.891C131.575 172.734 131.505 172.539 131.505 172.305ZM136.897 174.547L136.936 175.484C137.556 174.755 138.392 174.391 139.444 174.391C140.626 174.391 141.431 174.844 141.858 175.75C142.139 175.344 142.504 175.016 142.952 174.766C143.405 174.516 143.939 174.391 144.553 174.391C146.407 174.391 147.35 175.372 147.381 177.336V183H145.936V177.422C145.936 176.818 145.798 176.367 145.522 176.07C145.246 175.768 144.782 175.617 144.131 175.617C143.595 175.617 143.149 175.779 142.795 176.102C142.441 176.419 142.235 176.849 142.178 177.391V183H140.725V177.461C140.725 176.232 140.123 175.617 138.92 175.617C137.972 175.617 137.324 176.021 136.975 176.828V183H135.53V174.547H136.897ZM149.336 178.695C149.336 177.867 149.497 177.122 149.82 176.461C150.148 175.799 150.602 175.289 151.18 174.93C151.763 174.57 152.427 174.391 153.172 174.391C154.323 174.391 155.253 174.789 155.961 175.586C156.674 176.383 157.031 177.443 157.031 178.766V178.867C157.031 179.69 156.872 180.43 156.555 181.086C156.242 181.737 155.792 182.245 155.203 182.609C154.62 182.974 153.948 183.156 153.188 183.156C152.042 183.156 151.112 182.758 150.398 181.961C149.69 181.164 149.336 180.109 149.336 178.797V178.695ZM150.789 178.867C150.789 179.805 151.005 180.557 151.438 181.125C151.875 181.693 152.458 181.977 153.188 181.977C153.922 181.977 154.505 181.69 154.938 181.117C155.37 180.539 155.586 179.732 155.586 178.695C155.586 177.768 155.365 177.018 154.922 176.445C154.484 175.867 153.901 175.578 153.172 175.578C152.458 175.578 151.883 175.862 151.445 176.43C151.008 176.997 150.789 177.81 150.789 178.867ZM163.916 180.758C163.916 180.367 163.767 180.065 163.47 179.852C163.179 179.633 162.666 179.445 161.931 179.289C161.202 179.133 160.621 178.945 160.189 178.727C159.762 178.508 159.444 178.247 159.236 177.945C159.033 177.643 158.931 177.284 158.931 176.867C158.931 176.174 159.223 175.589 159.806 175.109C160.395 174.63 161.145 174.391 162.056 174.391C163.015 174.391 163.791 174.638 164.384 175.133C164.983 175.628 165.283 176.26 165.283 177.031H163.83C163.83 176.635 163.66 176.294 163.322 176.008C162.989 175.721 162.567 175.578 162.056 175.578C161.53 175.578 161.119 175.693 160.822 175.922C160.525 176.151 160.377 176.451 160.377 176.82C160.377 177.169 160.515 177.432 160.791 177.609C161.067 177.786 161.564 177.956 162.283 178.117C163.007 178.279 163.593 178.471 164.041 178.695C164.489 178.919 164.819 179.19 165.033 179.508C165.252 179.82 165.361 180.203 165.361 180.656C165.361 181.411 165.059 182.018 164.455 182.477C163.851 182.93 163.067 183.156 162.103 183.156C161.426 183.156 160.827 183.036 160.306 182.797C159.785 182.557 159.377 182.224 159.08 181.797C158.788 181.365 158.642 180.898 158.642 180.398H160.087C160.114 180.883 160.306 181.268 160.666 181.555C161.03 181.836 161.509 181.977 162.103 181.977C162.65 181.977 163.087 181.867 163.416 181.648C163.749 181.424 163.916 181.128 163.916 180.758ZM171.161 178.703C171.161 177.406 171.468 176.365 172.083 175.578C172.697 174.786 173.502 174.391 174.497 174.391C175.486 174.391 176.27 174.729 176.848 175.406V171H178.294V183H176.966L176.895 182.094C176.317 182.802 175.512 183.156 174.481 183.156C173.502 183.156 172.703 182.755 172.083 181.953C171.468 181.151 171.161 180.104 171.161 178.812V178.703ZM172.606 178.867C172.606 179.826 172.804 180.576 173.2 181.117C173.596 181.659 174.143 181.93 174.841 181.93C175.757 181.93 176.427 181.518 176.848 180.695V176.812C176.416 176.016 175.752 175.617 174.856 175.617C174.148 175.617 173.596 175.891 173.2 176.438C172.804 176.984 172.606 177.794 172.606 178.867ZM185.913 182.164C185.35 182.826 184.524 183.156 183.436 183.156C182.535 183.156 181.847 182.896 181.373 182.375C180.905 181.849 180.668 181.073 180.663 180.047V174.547H182.108V180.008C182.108 181.289 182.629 181.93 183.67 181.93C184.774 181.93 185.509 181.518 185.873 180.695V174.547H187.319V183H185.944L185.913 182.164ZM193.062 181.977C193.578 181.977 194.029 181.82 194.414 181.508C194.799 181.195 195.013 180.805 195.055 180.336H196.422C196.396 180.82 196.229 181.281 195.922 181.719C195.615 182.156 195.203 182.505 194.688 182.766C194.177 183.026 193.635 183.156 193.062 183.156C191.911 183.156 190.995 182.773 190.312 182.008C189.635 181.237 189.297 180.185 189.297 178.852V178.609C189.297 177.786 189.448 177.055 189.75 176.414C190.052 175.773 190.484 175.276 191.047 174.922C191.615 174.568 192.284 174.391 193.055 174.391C194.003 174.391 194.789 174.674 195.414 175.242C196.044 175.81 196.38 176.547 196.422 177.453H195.055C195.013 176.906 194.805 176.458 194.43 176.109C194.06 175.755 193.602 175.578 193.055 175.578C192.32 175.578 191.75 175.844 191.344 176.375C190.943 176.901 190.742 177.664 190.742 178.664V178.938C190.742 179.911 190.943 180.661 191.344 181.188C191.745 181.714 192.318 181.977 193.062 181.977ZM199.767 183H198.322V174.547H199.767V183ZM198.205 172.305C198.205 172.07 198.275 171.872 198.416 171.711C198.561 171.549 198.775 171.469 199.056 171.469C199.337 171.469 199.551 171.549 199.697 171.711C199.843 171.872 199.916 172.07 199.916 172.305C199.916 172.539 199.843 172.734 199.697 172.891C199.551 173.047 199.337 173.125 199.056 173.125C198.775 173.125 198.561 173.047 198.416 172.891C198.275 172.734 198.205 172.539 198.205 172.305ZM203.597 174.547L203.636 175.484C204.256 174.755 205.092 174.391 206.144 174.391C207.326 174.391 208.131 174.844 208.558 175.75C208.839 175.344 209.204 175.016 209.652 174.766C210.105 174.516 210.639 174.391 211.253 174.391C213.107 174.391 214.05 175.372 214.081 177.336V183H212.636V177.422C212.636 176.818 212.498 176.367 212.222 176.07C211.946 175.768 211.482 175.617 210.831 175.617C210.295 175.617 209.849 175.779 209.495 176.102C209.141 176.419 208.935 176.849 208.878 177.391V183H207.425V177.461C207.425 176.232 206.823 175.617 205.62 175.617C204.672 175.617 204.024 176.021 203.675 176.828V183H202.23V174.547H203.597ZM221.637 182.164C221.075 182.826 220.249 183.156 219.161 183.156C218.26 183.156 217.572 182.896 217.098 182.375C216.63 181.849 216.393 181.073 216.387 180.047V174.547H217.833V180.008C217.833 181.289 218.354 181.93 219.395 181.93C220.499 181.93 221.234 181.518 221.598 180.695V174.547H223.044V183H221.669L221.637 182.164ZM230.319 180.758C230.319 180.367 230.17 180.065 229.873 179.852C229.582 179.633 229.069 179.445 228.334 179.289C227.605 179.133 227.024 178.945 226.592 178.727C226.165 178.508 225.847 178.247 225.639 177.945C225.436 177.643 225.334 177.284 225.334 176.867C225.334 176.174 225.626 175.589 226.209 175.109C226.798 174.63 227.548 174.391 228.459 174.391C229.418 174.391 230.194 174.638 230.788 175.133C231.386 175.628 231.686 176.26 231.686 177.031H230.233C230.233 176.635 230.064 176.294 229.725 176.008C229.392 175.721 228.97 175.578 228.459 175.578C227.933 175.578 227.522 175.693 227.225 175.922C226.928 176.151 226.78 176.451 226.78 176.82C226.78 177.169 226.918 177.432 227.194 177.609C227.47 177.786 227.967 177.956 228.686 178.117C229.41 178.279 229.996 178.471 230.444 178.695C230.892 178.919 231.222 179.19 231.436 179.508C231.655 179.82 231.764 180.203 231.764 180.656C231.764 181.411 231.462 182.018 230.858 182.477C230.254 182.93 229.47 183.156 228.506 183.156C227.829 183.156 227.23 183.036 226.709 182.797C226.189 182.557 225.78 182.224 225.483 181.797C225.191 181.365 225.045 180.898 225.045 180.398H226.491C226.517 180.883 226.709 181.268 227.069 181.555C227.433 181.836 227.913 181.977 228.506 181.977C229.053 181.977 229.491 181.867 229.819 181.648C230.152 181.424 230.319 181.128 230.319 180.758ZM24.7063 202.703C24.7063 201.375 25.0109 200.326 25.6203 199.555C26.2297 198.779 27.0474 198.391 28.0734 198.391C29.0734 198.391 29.8625 198.727 30.4406 199.398L30.5031 198.547H31.8313V210.25H30.3859V206.219C29.8026 206.844 29.0266 207.156 28.0578 207.156C27.037 207.156 26.2219 206.76 25.6125 205.969C25.0083 205.172 24.7063 204.117 24.7063 202.805V202.703ZM26.1516 202.867C26.1516 203.836 26.3547 204.596 26.7609 205.148C27.1724 205.701 27.7245 205.977 28.4172 205.977C29.2766 205.977 29.9328 205.596 30.3859 204.836V200.695C29.9276 199.951 29.2766 199.578 28.4328 199.578C27.7349 199.578 27.1802 199.857 26.7688 200.414C26.3573 200.966 26.1516 201.784 26.1516 202.867ZM39.5203 206.164C38.9578 206.826 38.1323 207.156 37.0438 207.156C36.1427 207.156 35.4552 206.896 34.9813 206.375C34.5125 205.849 34.2755 205.073 34.2703 204.047V198.547H35.7156V204.008C35.7156 205.289 36.2365 205.93 37.2781 205.93C38.3823 205.93 39.1167 205.518 39.4813 204.695V198.547H40.9266V207H39.5516L39.5203 206.164ZM44.85 207H43.4047V198.547H44.85V207ZM43.2875 196.305C43.2875 196.07 43.3578 195.872 43.4984 195.711C43.6443 195.549 43.8578 195.469 44.1391 195.469C44.4203 195.469 44.6339 195.549 44.7797 195.711C44.9255 195.872 44.9984 196.07 44.9984 196.305C44.9984 196.539 44.9255 196.734 44.7797 196.891C44.6339 197.047 44.4203 197.125 44.1391 197.125C43.8578 197.125 43.6443 197.047 43.4984 196.891C43.3578 196.734 43.2875 196.539 43.2875 196.305ZM58.5953 202.867C58.5953 204.159 58.2984 205.198 57.7047 205.984C57.1109 206.766 56.3141 207.156 55.3141 207.156C54.2464 207.156 53.4208 206.779 52.8375 206.023L52.7672 207H51.4391V195H52.8844V199.477C53.4677 198.753 54.2724 198.391 55.2984 198.391C56.3245 198.391 57.1292 198.779 57.7125 199.555C58.301 200.331 58.5953 201.393 58.5953 202.742V202.867ZM57.15 202.703C57.15 201.719 56.9599 200.958 56.5797 200.422C56.1995 199.885 55.6526 199.617 54.9391 199.617C53.9859 199.617 53.301 200.06 52.8844 200.945V204.602C53.3271 205.487 54.0172 205.93 54.9547 205.93C55.6474 205.93 56.1865 205.661 56.5719 205.125C56.9573 204.589 57.15 203.781 57.15 202.703ZM62.1438 207H60.6984V195H62.1438V207ZM69.8328 207C69.7495 206.833 69.6818 206.536 69.6297 206.109C68.9578 206.807 68.1557 207.156 67.2234 207.156C66.3901 207.156 65.7052 206.922 65.1688 206.453C64.6375 205.979 64.3719 205.38 64.3719 204.656C64.3719 203.776 64.7052 203.094 65.3719 202.609C66.0438 202.12 66.9865 201.875 68.2 201.875H69.6063V201.211C69.6063 200.706 69.4552 200.305 69.1531 200.008C68.851 199.706 68.4057 199.555 67.8172 199.555C67.3016 199.555 66.8693 199.685 66.5203 199.945C66.1714 200.206 65.9969 200.521 65.9969 200.891H64.5438C64.5438 200.469 64.6922 200.062 64.9891 199.672C65.2912 199.276 65.6974 198.964 66.2078 198.734C66.7234 198.505 67.2885 198.391 67.9031 198.391C68.8771 198.391 69.6401 198.635 70.1922 199.125C70.7443 199.609 71.0307 200.279 71.0516 201.133V205.023C71.0516 205.799 71.1505 206.417 71.3484 206.875V207H69.8328ZM67.4344 205.898C67.8875 205.898 68.3172 205.781 68.7234 205.547C69.1297 205.312 69.424 205.008 69.6063 204.633V202.898H68.4734C66.7026 202.898 65.8172 203.417 65.8172 204.453C65.8172 204.906 65.9682 205.26 66.2703 205.516C66.5724 205.771 66.9604 205.898 67.4344 205.898ZM74.8344 198.547L74.8813 199.609C75.5271 198.797 76.3708 198.391 77.4125 198.391C79.199 198.391 80.1 199.398 80.1156 201.414V207H78.6703V201.406C78.6651 200.797 78.5245 200.346 78.2484 200.055C77.9776 199.763 77.5531 199.617 76.975 199.617C76.5063 199.617 76.0948 199.742 75.7406 199.992C75.3865 200.242 75.1104 200.57 74.9125 200.977V207H73.4672V198.547H74.8344ZM82.0938 202.703C82.0938 201.406 82.401 200.365 83.0156 199.578C83.6302 198.786 84.4349 198.391 85.4297 198.391C86.4193 198.391 87.2031 198.729 87.7812 199.406V195H89.2266V207H87.8984L87.8281 206.094C87.25 206.802 86.4453 207.156 85.4141 207.156C84.4349 207.156 83.6354 206.755 83.0156 205.953C82.401 205.151 82.0938 204.104 82.0938 202.812V202.703ZM83.5391 202.867C83.5391 203.826 83.737 204.576 84.1328 205.117C84.5286 205.659 85.0755 205.93 85.7734 205.93C86.6901 205.93 87.3594 205.518 87.7812 204.695V200.812C87.349 200.016 86.6849 199.617 85.7891 199.617C85.0807 199.617 84.5286 199.891 84.1328 200.438C83.737 200.984 83.5391 201.794 83.5391 202.867ZM93.1969 207H91.7516V198.547H93.1969V207ZM91.6344 196.305C91.6344 196.07 91.7047 195.872 91.8453 195.711C91.9911 195.549 92.2047 195.469 92.4859 195.469C92.7672 195.469 92.9807 195.549 93.1266 195.711C93.2724 195.872 93.3453 196.07 93.3453 196.305C93.3453 196.539 93.2724 196.734 93.1266 196.891C92.9807 197.047 92.7672 197.125 92.4859 197.125C92.2047 197.125 91.9911 197.047 91.8453 196.891C91.7047 196.734 91.6344 196.539 91.6344 196.305ZM97.6281 196.5V198.547H99.2063V199.664H97.6281V204.906C97.6281 205.245 97.6984 205.5 97.8391 205.672C97.9797 205.839 98.2193 205.922 98.5578 205.922C98.7245 205.922 98.9536 205.891 99.2453 205.828V207C98.8651 207.104 98.4953 207.156 98.1359 207.156C97.4901 207.156 97.0031 206.961 96.675 206.57C96.3469 206.18 96.1828 205.625 96.1828 204.906V199.664H94.6438V198.547H96.1828V196.5H97.6281ZM102.622 207H101.177V198.547H102.622V207ZM101.059 196.305C101.059 196.07 101.13 195.872 101.27 195.711C101.416 195.549 101.63 195.469 101.911 195.469C102.192 195.469 102.406 195.549 102.552 195.711C102.697 195.872 102.77 196.07 102.77 196.305C102.77 196.539 102.697 196.734 102.552 196.891C102.406 197.047 102.192 197.125 101.911 197.125C101.63 197.125 101.416 197.047 101.27 196.891C101.13 196.734 101.059 196.539 101.059 196.305ZM106.663 207H105.217V198.547H106.663V207ZM105.1 196.305C105.1 196.07 105.17 195.872 105.311 195.711C105.457 195.549 105.67 195.469 105.952 195.469C106.233 195.469 106.446 195.549 106.592 195.711C106.738 195.872 106.811 196.07 106.811 196.305C106.811 196.539 106.738 196.734 106.592 196.891C106.446 197.047 106.233 197.125 105.952 197.125C105.67 197.125 105.457 197.047 105.311 196.891C105.17 196.734 105.1 196.539 105.1 196.305ZM114.055 204.758C114.055 204.367 113.906 204.065 113.609 203.852C113.318 203.633 112.805 203.445 112.07 203.289C111.341 203.133 110.76 202.945 110.328 202.727C109.901 202.508 109.583 202.247 109.375 201.945C109.172 201.643 109.07 201.284 109.07 200.867C109.07 200.174 109.362 199.589 109.945 199.109C110.534 198.63 111.284 198.391 112.195 198.391C113.154 198.391 113.93 198.638 114.523 199.133C115.122 199.628 115.422 200.26 115.422 201.031H113.969C113.969 200.635 113.799 200.294 113.461 200.008C113.128 199.721 112.706 199.578 112.195 199.578C111.669 199.578 111.258 199.693 110.961 199.922C110.664 200.151 110.516 200.451 110.516 200.82C110.516 201.169 110.654 201.432 110.93 201.609C111.206 201.786 111.703 201.956 112.422 202.117C113.146 202.279 113.732 202.471 114.18 202.695C114.628 202.919 114.958 203.19 115.172 203.508C115.391 203.82 115.5 204.203 115.5 204.656C115.5 205.411 115.198 206.018 114.594 206.477C113.99 206.93 113.206 207.156 112.242 207.156C111.565 207.156 110.966 207.036 110.445 206.797C109.924 206.557 109.516 206.224 109.219 205.797C108.927 205.365 108.781 204.898 108.781 204.398H110.227C110.253 204.883 110.445 205.268 110.805 205.555C111.169 205.836 111.648 205.977 112.242 205.977C112.789 205.977 113.227 205.867 113.555 205.648C113.888 205.424 114.055 205.128 114.055 204.758ZM128.792 202.867C128.792 204.154 128.498 205.19 127.909 205.977C127.321 206.763 126.524 207.156 125.519 207.156C124.493 207.156 123.685 206.831 123.097 206.18V210.25H121.652V198.547H122.972L123.042 199.484C123.631 198.755 124.448 198.391 125.495 198.391C126.511 198.391 127.313 198.773 127.902 199.539C128.495 200.305 128.792 201.37 128.792 202.734V202.867ZM127.347 202.703C127.347 201.75 127.144 200.997 126.738 200.445C126.331 199.893 125.774 199.617 125.066 199.617C124.191 199.617 123.534 200.005 123.097 200.781V204.82C123.529 205.591 124.191 205.977 125.081 205.977C125.774 205.977 126.323 205.703 126.73 205.156C127.141 204.604 127.347 203.786 127.347 202.703ZM134.872 199.844C134.653 199.807 134.416 199.789 134.161 199.789C133.213 199.789 132.57 200.193 132.231 201V207H130.786V198.547H132.192L132.216 199.523C132.69 198.768 133.361 198.391 134.231 198.391C134.513 198.391 134.726 198.427 134.872 198.5V199.844ZM141.264 207C141.181 206.833 141.113 206.536 141.061 206.109C140.389 206.807 139.587 207.156 138.655 207.156C137.821 207.156 137.136 206.922 136.6 206.453C136.069 205.979 135.803 205.38 135.803 204.656C135.803 203.776 136.136 203.094 136.803 202.609C137.475 202.12 138.418 201.875 139.631 201.875H141.038V201.211C141.038 200.706 140.886 200.305 140.584 200.008C140.282 199.706 139.837 199.555 139.248 199.555C138.733 199.555 138.301 199.685 137.952 199.945C137.603 200.206 137.428 200.521 137.428 200.891H135.975C135.975 200.469 136.123 200.062 136.42 199.672C136.722 199.276 137.129 198.964 137.639 198.734C138.155 198.505 138.72 198.391 139.334 198.391C140.308 198.391 141.071 198.635 141.623 199.125C142.176 199.609 142.462 200.279 142.483 201.133V205.023C142.483 205.799 142.582 206.417 142.78 206.875V207H141.264ZM138.866 205.898C139.319 205.898 139.748 205.781 140.155 205.547C140.561 205.312 140.855 205.008 141.038 204.633V202.898H139.905C138.134 202.898 137.248 203.417 137.248 204.453C137.248 204.906 137.399 205.26 137.702 205.516C138.004 205.771 138.392 205.898 138.866 205.898ZM148.406 207.156C147.26 207.156 146.328 206.781 145.609 206.031C144.891 205.276 144.531 204.268 144.531 203.008V202.742C144.531 201.904 144.69 201.156 145.008 200.5C145.331 199.839 145.779 199.323 146.352 198.953C146.93 198.578 147.555 198.391 148.227 198.391C149.326 198.391 150.18 198.753 150.789 199.477C151.398 200.201 151.703 201.237 151.703 202.586V203.188H145.977C145.997 204.021 146.24 204.695 146.703 205.211C147.172 205.721 147.766 205.977 148.484 205.977C148.995 205.977 149.427 205.872 149.781 205.664C150.135 205.456 150.445 205.18 150.711 204.836L151.594 205.523C150.885 206.612 149.823 207.156 148.406 207.156ZM148.227 199.578C147.643 199.578 147.154 199.792 146.758 200.219C146.362 200.641 146.117 201.234 146.023 202H150.258V201.891C150.216 201.156 150.018 200.589 149.664 200.188C149.31 199.781 148.831 199.578 148.227 199.578ZM158.455 204.758C158.455 204.367 158.306 204.065 158.009 203.852C157.718 203.633 157.205 203.445 156.47 203.289C155.741 203.133 155.16 202.945 154.728 202.727C154.301 202.508 153.983 202.247 153.775 201.945C153.572 201.643 153.47 201.284 153.47 200.867C153.47 200.174 153.762 199.589 154.345 199.109C154.934 198.63 155.684 198.391 156.595 198.391C157.554 198.391 158.33 198.638 158.923 199.133C159.522 199.628 159.822 200.26 159.822 201.031H158.369C158.369 200.635 158.199 200.294 157.861 200.008C157.528 199.721 157.106 199.578 156.595 199.578C156.069 199.578 155.658 199.693 155.361 199.922C155.064 200.151 154.916 200.451 154.916 200.82C154.916 201.169 155.054 201.432 155.33 201.609C155.606 201.786 156.103 201.956 156.822 202.117C157.546 202.279 158.132 202.471 158.58 202.695C159.028 202.919 159.358 203.19 159.572 203.508C159.791 203.82 159.9 204.203 159.9 204.656C159.9 205.411 159.598 206.018 158.994 206.477C158.39 206.93 157.606 207.156 156.642 207.156C155.965 207.156 155.366 207.036 154.845 206.797C154.324 206.557 153.916 206.224 153.619 205.797C153.327 205.365 153.181 204.898 153.181 204.398H154.627C154.653 204.883 154.845 205.268 155.205 205.555C155.569 205.836 156.048 205.977 156.642 205.977C157.189 205.977 157.627 205.867 157.955 205.648C158.288 205.424 158.455 205.128 158.455 204.758ZM165.441 207.156C164.295 207.156 163.363 206.781 162.644 206.031C161.925 205.276 161.566 204.268 161.566 203.008V202.742C161.566 201.904 161.724 201.156 162.042 200.5C162.365 199.839 162.813 199.323 163.386 198.953C163.964 198.578 164.589 198.391 165.261 198.391C166.36 198.391 167.214 198.753 167.823 199.477C168.433 200.201 168.738 201.237 168.738 202.586V203.188H163.011C163.032 204.021 163.274 204.695 163.738 205.211C164.206 205.721 164.8 205.977 165.519 205.977C166.029 205.977 166.461 205.872 166.816 205.664C167.17 205.456 167.48 205.18 167.745 204.836L168.628 205.523C167.92 206.612 166.857 207.156 165.441 207.156ZM165.261 199.578C164.678 199.578 164.188 199.792 163.792 200.219C163.396 200.641 163.152 201.234 163.058 202H167.292V201.891C167.251 201.156 167.053 200.589 166.698 200.188C166.344 199.781 165.865 199.578 165.261 199.578ZM171.934 198.547L171.981 199.609C172.627 198.797 173.471 198.391 174.512 198.391C176.299 198.391 177.2 199.398 177.216 201.414V207H175.77V201.406C175.765 200.797 175.624 200.346 175.348 200.055C175.078 199.763 174.653 199.617 174.075 199.617C173.606 199.617 173.195 199.742 172.841 199.992C172.486 200.242 172.21 200.57 172.012 200.977V207H170.567V198.547H171.934ZM181.506 196.5V198.547H183.084V199.664H181.506V204.906C181.506 205.245 181.577 205.5 181.717 205.672C181.858 205.839 182.097 205.922 182.436 205.922C182.603 205.922 182.832 205.891 183.123 205.828V207C182.743 207.104 182.373 207.156 182.014 207.156C181.368 207.156 180.881 206.961 180.553 206.57C180.225 206.18 180.061 205.625 180.061 204.906V199.664H178.522V198.547H180.061V196.5H181.506ZM186.5 207H185.055V198.547H186.5V207ZM184.938 196.305C184.938 196.07 185.008 195.872 185.148 195.711C185.294 195.549 185.508 195.469 185.789 195.469C186.07 195.469 186.284 195.549 186.43 195.711C186.576 195.872 186.648 196.07 186.648 196.305C186.648 196.539 186.576 196.734 186.43 196.891C186.284 197.047 186.07 197.125 185.789 197.125C185.508 197.125 185.294 197.047 185.148 196.891C185.008 196.734 184.938 196.539 184.938 196.305ZM194.189 206.164C193.627 206.826 192.801 207.156 191.713 207.156C190.811 207.156 190.124 206.896 189.65 206.375C189.181 205.849 188.944 205.073 188.939 204.047V198.547H190.384V204.008C190.384 205.289 190.905 205.93 191.947 205.93C193.051 205.93 193.785 205.518 194.15 204.695V198.547H195.595V207H194.22L194.189 206.164ZM199.308 198.547L199.347 199.484C199.967 198.755 200.803 198.391 201.855 198.391C203.037 198.391 203.842 198.844 204.269 199.75C204.55 199.344 204.915 199.016 205.363 198.766C205.816 198.516 206.349 198.391 206.964 198.391C208.818 198.391 209.761 199.372 209.792 201.336V207H208.347V201.422C208.347 200.818 208.209 200.367 207.933 200.07C207.657 199.768 207.193 199.617 206.542 199.617C206.006 199.617 205.56 199.779 205.206 200.102C204.852 200.419 204.646 200.849 204.589 201.391V207H203.136V201.461C203.136 200.232 202.534 199.617 201.331 199.617C200.383 199.617 199.735 200.021 199.386 200.828V207H197.941V198.547H199.308ZM13.5906 229.977C14.1062 229.977 14.5568 229.82 14.9422 229.508C15.3276 229.195 15.5411 228.805 15.5828 228.336H16.95C16.924 228.82 16.7573 229.281 16.45 229.719C16.1427 230.156 15.7312 230.505 15.2156 230.766C14.7052 231.026 14.1635 231.156 13.5906 231.156C12.4396 231.156 11.5229 230.773 10.8406 230.008C10.1635 229.237 9.825 228.185 9.825 226.852V226.609C9.825 225.786 9.97604 225.055 10.2781 224.414C10.5802 223.773 11.0125 223.276 11.575 222.922C12.1427 222.568 12.812 222.391 13.5828 222.391C14.5307 222.391 15.3172 222.674 15.9422 223.242C16.5724 223.81 16.9083 224.547 16.95 225.453H15.5828C15.5411 224.906 15.3328 224.458 14.9578 224.109C14.588 223.755 14.1297 223.578 13.5828 223.578C12.8484 223.578 12.2781 223.844 11.8719 224.375C11.4708 224.901 11.2703 225.664 11.2703 226.664V226.938C11.2703 227.911 11.4708 228.661 11.8719 229.188C12.2729 229.714 12.8458 229.977 13.5906 229.977ZM18.3422 226.695C18.3422 225.867 18.5036 225.122 18.8266 224.461C19.1547 223.799 19.6078 223.289 20.1859 222.93C20.7693 222.57 21.4333 222.391 22.1781 222.391C23.3292 222.391 24.2589 222.789 24.9672 223.586C25.6807 224.383 26.0375 225.443 26.0375 226.766V226.867C26.0375 227.69 25.8786 228.43 25.5609 229.086C25.2484 229.737 24.7979 230.245 24.2094 230.609C23.626 230.974 22.9542 231.156 22.1937 231.156C21.0479 231.156 20.1182 230.758 19.4047 229.961C18.6964 229.164 18.3422 228.109 18.3422 226.797V226.695ZM19.7953 226.867C19.7953 227.805 20.0115 228.557 20.4437 229.125C20.8812 229.693 21.4646 229.977 22.1937 229.977C22.9281 229.977 23.5115 229.69 23.9437 229.117C24.376 228.539 24.5922 227.732 24.5922 226.695C24.5922 225.768 24.3708 225.018 23.9281 224.445C23.4906 223.867 22.9073 223.578 22.1781 223.578C21.4646 223.578 20.8891 223.862 20.4516 224.43C20.0141 224.997 19.7953 225.81 19.7953 226.867ZM32.0859 223.844C31.8672 223.807 31.6302 223.789 31.375 223.789C30.4271 223.789 29.7839 224.193 29.4453 225V231H28V222.547H29.4062L29.4297 223.523C29.9036 222.768 30.5755 222.391 31.4453 222.391C31.7266 222.391 31.9401 222.427 32.0859 222.5V223.844ZM37.6578 223.844C37.4391 223.807 37.2021 223.789 36.9469 223.789C35.999 223.789 35.3557 224.193 35.0172 225V231H33.5719V222.547H34.9781L35.0016 223.523C35.4755 222.768 36.1474 222.391 37.0172 222.391C37.2984 222.391 37.512 222.427 37.6578 222.5V223.844ZM44.3625 230.164C43.8 230.826 42.9745 231.156 41.8859 231.156C40.9849 231.156 40.2974 230.896 39.8234 230.375C39.3547 229.849 39.1177 229.073 39.1125 228.047V222.547H40.5578V228.008C40.5578 229.289 41.0786 229.93 42.1203 229.93C43.2245 229.93 43.9588 229.518 44.3234 228.695V222.547H45.7687V231H44.3937L44.3625 230.164ZM55.2625 226.867C55.2625 228.154 54.9682 229.19 54.3797 229.977C53.7911 230.763 52.9943 231.156 51.9891 231.156C50.963 231.156 50.1557 230.831 49.5672 230.18V234.25H48.1219V222.547H49.4422L49.5125 223.484C50.101 222.755 50.9187 222.391 51.9656 222.391C52.9812 222.391 53.7833 222.773 54.3719 223.539C54.9656 224.305 55.2625 225.37 55.2625 226.734V226.867ZM53.8172 226.703C53.8172 225.75 53.6141 224.997 53.2078 224.445C52.8016 223.893 52.2443 223.617 51.5359 223.617C50.6609 223.617 50.0047 224.005 49.5672 224.781V228.82C49.9995 229.591 50.6609 229.977 51.5516 229.977C52.2443 229.977 52.7937 229.703 53.2 229.156C53.6115 228.604 53.8172 227.786 53.8172 226.703ZM59.2172 220.5V222.547H60.7953V223.664H59.2172V228.906C59.2172 229.245 59.2875 229.5 59.4281 229.672C59.5687 229.839 59.8083 229.922 60.1469 229.922C60.3135 229.922 60.5427 229.891 60.8344 229.828V231C60.4542 231.104 60.0844 231.156 59.725 231.156C59.0792 231.156 58.5922 230.961 58.2641 230.57C57.9359 230.18 57.7719 229.625 57.7719 228.906V223.664H56.2328V222.547H57.7719V220.5H59.2172ZM64.2109 231H62.7656V222.547H64.2109V231ZM62.6484 220.305C62.6484 220.07 62.7187 219.872 62.8594 219.711C63.0052 219.549 63.2187 219.469 63.5 219.469C63.7812 219.469 63.9948 219.549 64.1406 219.711C64.2865 219.872 64.3594 220.07 64.3594 220.305C64.3594 220.539 64.2865 220.734 64.1406 220.891C63.9948 221.047 63.7812 221.125 63.5 221.125C63.2187 221.125 63.0052 221.047 62.8594 220.891C62.7187 220.734 62.6484 220.539 62.6484 220.305ZM70.4484 226.703C70.4484 225.375 70.7531 224.326 71.3625 223.555C71.9719 222.779 72.7896 222.391 73.8156 222.391C74.8156 222.391 75.6047 222.727 76.1828 223.398L76.2453 222.547H77.5734V234.25H76.1281V230.219C75.5448 230.844 74.7687 231.156 73.8 231.156C72.7792 231.156 71.9641 230.76 71.3547 229.969C70.7505 229.172 70.4484 228.117 70.4484 226.805V226.703ZM71.8937 226.867C71.8937 227.836 72.0969 228.596 72.5031 229.148C72.9146 229.701 73.4667 229.977 74.1594 229.977C75.0187 229.977 75.675 229.596 76.1281 228.836V224.695C75.6698 223.951 75.0187 223.578 74.175 223.578C73.4771 223.578 72.9224 223.857 72.5109 224.414C72.0995 224.966 71.8937 225.784 71.8937 226.867ZM85.2625 230.164C84.7 230.826 83.8745 231.156 82.7859 231.156C81.8849 231.156 81.1974 230.896 80.7234 230.375C80.2547 229.849 80.0177 229.073 80.0125 228.047V222.547H81.4578V228.008C81.4578 229.289 81.9786 229.93 83.0203 229.93C84.1245 229.93 84.8589 229.518 85.2234 228.695V222.547H86.6687V231H85.2937L85.2625 230.164ZM88.6391 226.695C88.6391 225.867 88.8005 225.122 89.1234 224.461C89.4516 223.799 89.9047 223.289 90.4828 222.93C91.0661 222.57 91.7302 222.391 92.475 222.391C93.626 222.391 94.5557 222.789 95.2641 223.586C95.9776 224.383 96.3344 225.443 96.3344 226.766V226.867C96.3344 227.69 96.1755 228.43 95.8578 229.086C95.5453 229.737 95.0948 230.245 94.5062 230.609C93.9229 230.974 93.251 231.156 92.4906 231.156C91.3448 231.156 90.4151 230.758 89.7016 229.961C88.9932 229.164 88.6391 228.109 88.6391 226.797V226.695ZM90.0922 226.867C90.0922 227.805 90.3083 228.557 90.7406 229.125C91.1781 229.693 91.7615 229.977 92.4906 229.977C93.225 229.977 93.8083 229.69 94.2406 229.117C94.6729 228.539 94.8891 227.732 94.8891 226.695C94.8891 225.768 94.6677 225.018 94.225 224.445C93.7875 223.867 93.2042 223.578 92.475 223.578C91.7615 223.578 91.1859 223.862 90.7484 224.43C90.3109 224.997 90.0922 225.81 90.0922 226.867ZM103.219 228.758C103.219 228.367 103.07 228.065 102.773 227.852C102.482 227.633 101.969 227.445 101.234 227.289C100.505 227.133 99.9245 226.945 99.4922 226.727C99.0651 226.508 98.7474 226.247 98.5391 225.945C98.3359 225.643 98.2344 225.284 98.2344 224.867C98.2344 224.174 98.526 223.589 99.1094 223.109C99.6979 222.63 100.448 222.391 101.359 222.391C102.318 222.391 103.094 222.638 103.688 223.133C104.286 223.628 104.586 224.26 104.586 225.031H103.133C103.133 224.635 102.964 224.294 102.625 224.008C102.292 223.721 101.87 223.578 101.359 223.578C100.833 223.578 100.422 223.693 100.125 223.922C99.8281 224.151 99.6797 224.451 99.6797 224.82C99.6797 225.169 99.8177 225.432 100.094 225.609C100.37 225.786 100.867 225.956 101.586 226.117C102.31 226.279 102.896 226.471 103.344 226.695C103.792 226.919 104.122 227.19 104.336 227.508C104.555 227.82 104.664 228.203 104.664 228.656C104.664 229.411 104.362 230.018 103.758 230.477C103.154 230.93 102.37 231.156 101.406 231.156C100.729 231.156 100.13 231.036 99.6094 230.797C99.0885 230.557 98.6797 230.224 98.3828 229.797C98.0911 229.365 97.9453 228.898 97.9453 228.398H99.3906C99.4167 228.883 99.6094 229.268 99.9688 229.555C100.333 229.836 100.812 229.977 101.406 229.977C101.953 229.977 102.391 229.867 102.719 229.648C103.052 229.424 103.219 229.128 103.219 228.758ZM110.464 226.703C110.464 225.406 110.771 224.365 111.386 223.578C112.001 222.786 112.805 222.391 113.8 222.391C114.79 222.391 115.573 222.729 116.152 223.406V219H117.597V231H116.269L116.198 230.094C115.62 230.802 114.816 231.156 113.784 231.156C112.805 231.156 112.006 230.755 111.386 229.953C110.771 229.151 110.464 228.104 110.464 226.812V226.703ZM111.909 226.867C111.909 227.826 112.107 228.576 112.503 229.117C112.899 229.659 113.446 229.93 114.144 229.93C115.06 229.93 115.73 229.518 116.152 228.695V224.812C115.719 224.016 115.055 223.617 114.159 223.617C113.451 223.617 112.899 223.891 112.503 224.438C112.107 224.984 111.909 225.794 111.909 226.867ZM119.614 226.695C119.614 225.867 119.776 225.122 120.098 224.461C120.427 223.799 120.88 223.289 121.458 222.93C122.041 222.57 122.705 222.391 123.45 222.391C124.601 222.391 125.531 222.789 126.239 223.586C126.953 224.383 127.309 225.443 127.309 226.766V226.867C127.309 227.69 127.151 228.43 126.833 229.086C126.52 229.737 126.07 230.245 125.481 230.609C124.898 230.974 124.226 231.156 123.466 231.156C122.32 231.156 121.39 230.758 120.677 229.961C119.968 229.164 119.614 228.109 119.614 226.797V226.695ZM121.067 226.867C121.067 227.805 121.283 228.557 121.716 229.125C122.153 229.693 122.736 229.977 123.466 229.977C124.2 229.977 124.783 229.69 125.216 229.117C125.648 228.539 125.864 227.732 125.864 226.695C125.864 225.768 125.643 225.018 125.2 224.445C124.762 223.867 124.179 223.578 123.45 223.578C122.736 223.578 122.161 223.862 121.723 224.43C121.286 224.997 121.067 225.81 121.067 226.867ZM130.842 231H129.397V219H130.842V231ZM132.93 226.695C132.93 225.867 133.091 225.122 133.414 224.461C133.742 223.799 134.195 223.289 134.773 222.93C135.357 222.57 136.021 222.391 136.766 222.391C137.917 222.391 138.846 222.789 139.555 223.586C140.268 224.383 140.625 225.443 140.625 226.766V226.867C140.625 227.69 140.466 228.43 140.148 229.086C139.836 229.737 139.385 230.245 138.797 230.609C138.214 230.974 137.542 231.156 136.781 231.156C135.635 231.156 134.706 230.758 133.992 229.961C133.284 229.164 132.93 228.109 132.93 226.797V226.695ZM134.383 226.867C134.383 227.805 134.599 228.557 135.031 229.125C135.469 229.693 136.052 229.977 136.781 229.977C137.516 229.977 138.099 229.69 138.531 229.117C138.964 228.539 139.18 227.732 139.18 226.695C139.18 225.768 138.958 225.018 138.516 224.445C138.078 223.867 137.495 223.578 136.766 223.578C136.052 223.578 135.477 223.862 135.039 224.43C134.602 224.997 134.383 225.81 134.383 226.867ZM146.673 223.844C146.455 223.807 146.218 223.789 145.962 223.789C145.015 223.789 144.371 224.193 144.033 225V231H142.587V222.547H143.994L144.017 223.523C144.491 222.768 145.163 222.391 146.033 222.391C146.314 222.391 146.528 222.427 146.673 222.5V223.844ZM151.511 231.156C150.365 231.156 149.433 230.781 148.714 230.031C147.995 229.276 147.636 228.268 147.636 227.008V226.742C147.636 225.904 147.795 225.156 148.113 224.5C148.435 223.839 148.883 223.323 149.456 222.953C150.034 222.578 150.659 222.391 151.331 222.391C152.43 222.391 153.284 222.753 153.894 223.477C154.503 224.201 154.808 225.237 154.808 226.586V227.188H149.081C149.102 228.021 149.344 228.695 149.808 229.211C150.277 229.721 150.87 229.977 151.589 229.977C152.099 229.977 152.532 229.872 152.886 229.664C153.24 229.456 153.55 229.18 153.816 228.836L154.698 229.523C153.99 230.612 152.928 231.156 151.511 231.156ZM151.331 223.578C150.748 223.578 150.258 223.792 149.863 224.219C149.467 224.641 149.222 225.234 149.128 226H153.363V225.891C153.321 225.156 153.123 224.589 152.769 224.188C152.415 223.781 151.935 223.578 151.331 223.578ZM161.559 228.758C161.559 228.367 161.411 228.065 161.114 227.852C160.822 227.633 160.309 227.445 159.575 227.289C158.846 227.133 158.265 226.945 157.833 226.727C157.406 226.508 157.088 226.247 156.88 225.945C156.677 225.643 156.575 225.284 156.575 224.867C156.575 224.174 156.867 223.589 157.45 223.109C158.039 222.63 158.789 222.391 159.7 222.391C160.658 222.391 161.434 222.638 162.028 223.133C162.627 223.628 162.927 224.26 162.927 225.031H161.473C161.473 224.635 161.304 224.294 160.966 224.008C160.632 223.721 160.21 223.578 159.7 223.578C159.174 223.578 158.762 223.693 158.466 223.922C158.169 224.151 158.02 224.451 158.02 224.82C158.02 225.169 158.158 225.432 158.434 225.609C158.71 225.786 159.208 225.956 159.927 226.117C160.651 226.279 161.236 226.471 161.684 226.695C162.132 226.919 162.463 227.19 162.677 227.508C162.895 227.82 163.005 228.203 163.005 228.656C163.005 229.411 162.703 230.018 162.098 230.477C161.494 230.93 160.71 231.156 159.747 231.156C159.07 231.156 158.471 231.036 157.95 230.797C157.429 230.557 157.02 230.224 156.723 229.797C156.432 229.365 156.286 228.898 156.286 228.398H157.731C157.757 228.883 157.95 229.268 158.309 229.555C158.674 229.836 159.153 229.977 159.747 229.977C160.294 229.977 160.731 229.867 161.059 229.648C161.393 229.424 161.559 229.128 161.559 228.758ZM172.664 231.156C171.518 231.156 170.586 230.781 169.867 230.031C169.148 229.276 168.789 228.268 168.789 227.008V226.742C168.789 225.904 168.948 225.156 169.266 224.5C169.589 223.839 170.036 223.323 170.609 222.953C171.188 222.578 171.812 222.391 172.484 222.391C173.583 222.391 174.438 222.753 175.047 223.477C175.656 224.201 175.961 225.237 175.961 226.586V227.188H170.234C170.255 228.021 170.497 228.695 170.961 229.211C171.43 229.721 172.023 229.977 172.742 229.977C173.253 229.977 173.685 229.872 174.039 229.664C174.393 229.456 174.703 229.18 174.969 228.836L175.852 229.523C175.143 230.612 174.081 231.156 172.664 231.156ZM172.484 223.578C171.901 223.578 171.411 223.792 171.016 224.219C170.62 224.641 170.375 225.234 170.281 226H174.516V225.891C174.474 225.156 174.276 224.589 173.922 224.188C173.568 223.781 173.089 223.578 172.484 223.578ZM179.752 220.5V222.547H181.33V223.664H179.752V228.906C179.752 229.245 179.822 229.5 179.962 229.672C180.103 229.839 180.343 229.922 180.681 229.922C180.848 229.922 181.077 229.891 181.369 229.828V231C180.989 231.104 180.619 231.156 180.259 231.156C179.614 231.156 179.127 230.961 178.798 230.57C178.47 230.18 178.306 229.625 178.306 228.906V223.664H176.767V222.547H178.306V220.5H179.752ZM186.942 226.703C186.942 225.375 187.247 224.326 187.856 223.555C188.466 222.779 189.283 222.391 190.309 222.391C191.309 222.391 192.098 222.727 192.677 223.398L192.739 222.547H194.067V234.25H192.622V230.219C192.039 230.844 191.262 231.156 190.294 231.156C189.273 231.156 188.458 230.76 187.848 229.969C187.244 229.172 186.942 228.117 186.942 226.805V226.703ZM188.387 226.867C188.387 227.836 188.591 228.596 188.997 229.148C189.408 229.701 189.96 229.977 190.653 229.977C191.512 229.977 192.169 229.596 192.622 228.836V224.695C192.164 223.951 191.512 223.578 190.669 223.578C189.971 223.578 189.416 223.857 189.005 224.414C188.593 224.966 188.387 225.784 188.387 226.867ZM201.756 230.164C201.194 230.826 200.368 231.156 199.28 231.156C198.379 231.156 197.691 230.896 197.217 230.375C196.748 229.849 196.511 229.073 196.506 228.047V222.547H197.952V228.008C197.952 229.289 198.472 229.93 199.514 229.93C200.618 229.93 201.353 229.518 201.717 228.695V222.547H203.162V231H201.787L201.756 230.164ZM210.734 231C210.651 230.833 210.583 230.536 210.531 230.109C209.859 230.807 209.057 231.156 208.125 231.156C207.292 231.156 206.607 230.922 206.07 230.453C205.539 229.979 205.273 229.38 205.273 228.656C205.273 227.776 205.607 227.094 206.273 226.609C206.945 226.12 207.888 225.875 209.102 225.875H210.508V225.211C210.508 224.706 210.357 224.305 210.055 224.008C209.753 223.706 209.307 223.555 208.719 223.555C208.203 223.555 207.771 223.685 207.422 223.945C207.073 224.206 206.898 224.521 206.898 224.891H205.445C205.445 224.469 205.594 224.062 205.891 223.672C206.193 223.276 206.599 222.964 207.109 222.734C207.625 222.505 208.19 222.391 208.805 222.391C209.779 222.391 210.542 222.635 211.094 223.125C211.646 223.609 211.932 224.279 211.953 225.133V229.023C211.953 229.799 212.052 230.417 212.25 230.875V231H210.734ZM208.336 229.898C208.789 229.898 209.219 229.781 209.625 229.547C210.031 229.312 210.326 229.008 210.508 228.633V226.898H209.375C207.604 226.898 206.719 227.417 206.719 228.453C206.719 228.906 206.87 229.26 207.172 229.516C207.474 229.771 207.862 229.898 208.336 229.898ZM219.291 228.758C219.291 228.367 219.142 228.065 218.845 227.852C218.554 227.633 218.041 227.445 217.306 227.289C216.577 227.133 215.996 226.945 215.564 226.727C215.137 226.508 214.819 226.247 214.611 225.945C214.408 225.643 214.306 225.284 214.306 224.867C214.306 224.174 214.598 223.589 215.181 223.109C215.77 222.63 216.52 222.391 217.431 222.391C218.39 222.391 219.166 222.638 219.759 223.133C220.358 223.628 220.658 224.26 220.658 225.031H219.205C219.205 224.635 219.035 224.294 218.697 224.008C218.364 223.721 217.942 223.578 217.431 223.578C216.905 223.578 216.494 223.693 216.197 223.922C215.9 224.151 215.752 224.451 215.752 224.82C215.752 225.169 215.89 225.432 216.166 225.609C216.442 225.786 216.939 225.956 217.658 226.117C218.382 226.279 218.968 226.471 219.416 226.695C219.864 226.919 220.194 227.19 220.408 227.508C220.627 227.82 220.736 228.203 220.736 228.656C220.736 229.411 220.434 230.018 219.83 230.477C219.226 230.93 218.442 231.156 217.478 231.156C216.801 231.156 216.202 231.036 215.681 230.797C215.16 230.557 214.752 230.224 214.455 229.797C214.163 229.365 214.017 228.898 214.017 228.398H215.462C215.489 228.883 215.681 229.268 216.041 229.555C216.405 229.836 216.884 229.977 217.478 229.977C218.025 229.977 218.462 229.867 218.791 229.648C219.124 229.424 219.291 229.128 219.291 228.758ZM222.8 230.242C222.8 229.992 222.873 229.784 223.019 229.617C223.17 229.451 223.394 229.367 223.691 229.367C223.988 229.367 224.211 229.451 224.363 229.617C224.519 229.784 224.597 229.992 224.597 230.242C224.597 230.482 224.519 230.682 224.363 230.844C224.211 231.005 223.988 231.086 223.691 231.086C223.394 231.086 223.17 231.005 223.019 230.844C222.873 230.682 222.8 230.482 222.8 230.242Z" fill="#4B4B4B"/>
<path d="M118.516 30.5156H120.484V35.4375H118.516V30.5156Z" fill="#CBCBCB"/>
<path d="M90.9531 18.7031H148.047V30.5156H90.9531V18.7031Z" fill="#50559F"/>
<path d="M105.719 18.7031H148.047V30.5156H105.719C104.152 30.5156 102.65 29.8934 101.542 28.7857C100.435 27.6781 99.8125 26.1758 99.8125 24.6094C99.8125 23.0429 100.435 21.5407 101.542 20.433C102.65 19.3254 104.152 18.7031 105.719 18.7031Z" fill="#5D62B5"/>
<path d="M129.344 23.625H131.312V25.5938H129.344V23.625Z" fill="#50559F"/>
<path d="M133.281 23.625H135.25V25.5938H133.281V23.625Z" fill="#50559F"/>
<path d="M137.219 23.625H139.188V25.5938H137.219V23.625Z" fill="#50559F"/>
<path d="M112.609 17.7188V31.5H126.391V17.7188H112.609ZM122.453 27.5625H116.547V21.6562H122.453V27.5625Z" fill="#E4E4E2"/>
<path d="M126.391 39.375C126.391 40.7378 125.986 42.0701 125.229 43.2032C124.472 44.3364 123.396 45.2196 122.137 45.7411C120.878 46.2626 119.492 46.3991 118.156 46.1332C116.819 45.8673 115.591 45.2111 114.628 44.2474C113.664 43.2837 113.008 42.0559 112.742 40.7193C112.476 39.3826 112.612 37.9972 113.134 36.7381C113.655 35.479 114.539 34.4028 115.672 33.6457C116.805 32.8885 118.137 32.4844 119.5 32.4844C121.327 32.4846 123.08 33.2107 124.372 34.5029C125.664 35.7951 126.39 37.5476 126.391 39.375Z" fill="#F3AF3E"/>
<path d="M122.453 21.6562H123.438V27.5625H122.453V21.6562Z" fill="#CBCBCB"/>
<path d="M111.625 18.7031H112.609V30.5156H111.625V18.7031Z" fill="#50559F"/>
</svg>
